<svg xmlns="http://www.w3.org/2000/svg" width="100.922" height="19.77" viewBox="0 0 100.922 19.77"><defs><style>.a{fill:#fff;}</style></defs><g transform="translate(-150.889 -244.735)"><g transform="translate(190.918 246.819)"><path class="a" d="M489.4,272.832h.993l.411,1.232c.291-.6,1.215-1.352,3.2-1.352,2.875,0,3.44,1.677,3.44,4.159v4.724H495.63v-4.878c0-1.557-.274-2.482-2.139-2.482s-2.259.907-2.259,2.482v4.878H489.4Z" transform="translate(-466.177 -269.569)"/><path class="a" d="M678.913,309.546c0-.907.455-1.112,1.144-1.112.66,0,1.115.205,1.115,1.112,0,.873-.454,1.1-1.115,1.1C679.368,310.642,678.913,310.419,678.913,309.546Z" transform="translate(-620.279 -298.616)"/><path class="a" d="M432.878,279.355a1.9,1.9,0,0,1-1.928.956,2.226,2.226,0,0,1-2.43-2.379h6.4c.223-2.756-.685-5.22-3.919-5.22-3.491,0-4.381,2.139-4.381,4.484s.873,4.518,4.4,4.518c2,0,3.09-.7,3.6-1.651Zm-2.048-5.222a2.046,2.046,0,0,1,2.208,2.31c.017,0,0,.017,0,.017.017.017,0,.017,0,.017h-4.5C428.622,275.194,429.118,274.133,430.83,274.133Z" transform="translate(-415.128 -269.569)"/><path class="a" d="M625.054,279.355a1.9,1.9,0,0,1-1.928.956,2.226,2.226,0,0,1-2.43-2.379h6.4c.222-2.756-.685-5.22-3.919-5.22-3.491,0-4.381,2.139-4.381,4.484s.873,4.518,4.4,4.518c2,0,3.091-.7,3.6-1.651Zm-2.048-5.222a2.046,2.046,0,0,1,2.208,2.31c.017,0,0,.017,0,.017.017.017,0,.017,0,.017h-4.5C620.8,275.194,621.295,274.133,623.006,274.133Z" transform="translate(-571.395 -269.569)"/><path class="a" d="M550.992,260.625v-1.471H548.7V256.63l-1.815-.74v3.263l-1.249.376v1.1h1.249V265.4c0,2.071,1.215,2.756,4.108,2.584v-1.472c-1.9.086-2.242-.291-2.242-1.112v-4.775Z" transform="translate(-511.906 -255.89)"/><path class="a" d="M590.773,255.89h-.028v12.026h1.831v-11.29Z" transform="translate(-548.586 -255.89)"/><path class="a" d="M369.6,280.187c-1.934-.257-2.653-.325-2.653-.736,0-.188.052-.394.736-.479a14.788,14.788,0,0,0,1.523.12c3.251,0,3.97-1.266,3.97-3.08a2.087,2.087,0,0,0-.976-1.968l1.232-.359v-.873h-3.85c-3.525,0-4.294,1.4-4.294,3.183a2.36,2.36,0,0,0,1.318,2.207c-.89.223-1.489.633-1.489,1.386,0,1.557,2.4,1.66,4.4,2,1.318.222,2.293.376,2.293,1.078,0,.513-.359,1.129-2.378,1.129-1.583,0-2.16-.332-2.389-.908l-1.8.734c.469,1.048,1.653,1.629,4.155,1.629,3.406,0,4.312-1.386,4.312-2.686C373.707,280.717,371.466,280.426,369.6,280.187Zm-.393-5.869c1.728,0,2.07.684,2.07,1.626,0,1.061-.394,1.779-2.053,1.779-1.711,0-2.07-.753-2.07-1.779C367.154,274.985,367.547,274.318,369.207,274.318Z" transform="translate(-365.118 -269.65)"/></g><path class="a" d="M182.888,254.621c0,.05,0,.1,0,.15,0,.286-.02.569-.049.848A9.885,9.885,0,0,1,173,264.505H160.775a9.885,9.885,0,0,1-9.884-9.735c0-.05,0-.1,0-.15a9.886,9.886,0,0,1,9.885-9.885H173a9.887,9.887,0,0,1,9.464,7.024h-1.956a8.034,8.034,0,0,0-15.541,2.861c0,.05,0,.1,0,.15a8.034,8.034,0,0,0,16,.848h-7.184v-1.9h9.055Q182.888,254.163,182.888,254.621Z" transform="translate(0 0)"/></g></svg>