<?xml version="1.0" encoding="UTF-8" standalone="no"?>
<svg
   xmlns:dc="http://purl.org/dc/elements/1.1/"
   xmlns:cc="http://creativecommons.org/ns#"
   xmlns:rdf="http://www.w3.org/1999/02/22-rdf-syntax-ns#"
   xmlns:svg="http://www.w3.org/2000/svg"
   xmlns="http://www.w3.org/2000/svg"
   xmlns:sodipodi="http://sodipodi.sourceforge.net/DTD/sodipodi-0.dtd"
   xmlns:inkscape="http://www.inkscape.org/namespaces/inkscape"
   width="308"
   height="100"
   viewBox="0 0 308.00001 99.999998"
   version="1.1"
   id="svg26"
   sodipodi:docname="logo-gentle.svg"
   inkscape:version="0.92.5 (2060ec1f9f, 2020-04-08)">
  <metadata
     id="metadata30">
    <rdf:RDF>
      <cc:Work
         rdf:about="">
        <dc:format>image/svg+xml</dc:format>
        <dc:type
           rdf:resource="http://purl.org/dc/dcmitype/StillImage" />
        <dc:title></dc:title>
      </cc:Work>
    </rdf:RDF>
  </metadata>
  <sodipodi:namedview
     pagecolor="#ffffff"
     bordercolor="#666666"
     borderopacity="1"
     objecttolerance="10"
     gridtolerance="10"
     guidetolerance="10"
     inkscape:pageopacity="0"
     inkscape:pageshadow="2"
     inkscape:window-width="640"
     inkscape:window-height="480"
     id="namedview28"
     showgrid="false"
     inkscape:zoom="1.6570298"
     inkscape:cx="58.565874"
     inkscape:cy="58.936388"
     inkscape:current-layer="svg26"
     fit-margin-top="0"
     fit-margin-left="0"
     fit-margin-right="0"
     fit-margin-bottom="0" />
  <defs
     id="defs4">
    <style
       id="style2">.a{fill:#fff;}</style>
  </defs>
  <rect
     style="fill:#000000;fill-opacity:1;stroke:#1a1a1a;stroke-width:0.00054582;stroke-miterlimit:8;stroke-dasharray:none;stroke-dashoffset:0;stroke-opacity:1"
     id="rect4540"
     width="307.99945"
     height="99.999451"
     x="0.00027290999"
     y="0.00027290999" />
  <g
     transform="matrix(2.3873321,0,0,2.3873321,-326.69171,-556.58207)"
     id="g24">
    <g
       transform="translate(190.918,246.819)"
       id="g20">
      <path
         class="a"
         d="m 489.4,272.832 h 0.993 l 0.411,1.232 c 0.291,-0.6 1.215,-1.352 3.2,-1.352 2.875,0 3.44,1.677 3.44,4.159 v 4.724 h -1.814 v -4.878 c 0,-1.557 -0.274,-2.482 -2.139,-2.482 -1.865,0 -2.259,0.907 -2.259,2.482 v 4.878 H 489.4 Z"
         transform="translate(-466.177,-269.569)"
         id="path6"
         inkscape:connector-curvature="0"
         style="fill:#ffffff" />
      <path
         class="a"
         d="m 678.913,309.546 c 0,-0.907 0.455,-1.112 1.144,-1.112 0.66,0 1.115,0.205 1.115,1.112 0,0.873 -0.454,1.1 -1.115,1.1 -0.689,-0.004 -1.144,-0.227 -1.144,-1.1 z"
         transform="translate(-620.279,-298.616)"
         id="path8"
         inkscape:connector-curvature="0"
         style="fill:#ffffff" />
      <path
         class="a"
         d="m 432.878,279.355 a 1.9,1.9 0 0 1 -1.928,0.956 2.226,2.226 0 0 1 -2.43,-2.379 h 6.4 c 0.223,-2.756 -0.685,-5.22 -3.919,-5.22 -3.491,0 -4.381,2.139 -4.381,4.484 0,2.345 0.873,4.518 4.4,4.518 2,0 3.09,-0.7 3.6,-1.651 z m -2.048,-5.222 a 2.046,2.046 0 0 1 2.208,2.31 c 0.017,0 0,0.017 0,0.017 0.017,0.017 0,0.017 0,0.017 h -4.5 c 0.084,-1.283 0.58,-2.344 2.292,-2.344 z"
         transform="translate(-415.128,-269.569)"
         id="path10"
         inkscape:connector-curvature="0"
         style="fill:#ffffff" />
      <path
         class="a"
         d="m 625.054,279.355 a 1.9,1.9 0 0 1 -1.928,0.956 2.226,2.226 0 0 1 -2.43,-2.379 h 6.4 c 0.222,-2.756 -0.685,-5.22 -3.919,-5.22 -3.491,0 -4.381,2.139 -4.381,4.484 0,2.345 0.873,4.518 4.4,4.518 2,0 3.091,-0.7 3.6,-1.651 z m -2.048,-5.222 a 2.046,2.046 0 0 1 2.208,2.31 c 0.017,0 0,0.017 0,0.017 0.017,0.017 0,0.017 0,0.017 h -4.5 c 0.086,-1.283 0.581,-2.344 2.292,-2.344 z"
         transform="translate(-571.395,-269.569)"
         id="path12"
         inkscape:connector-curvature="0"
         style="fill:#ffffff" />
      <path
         class="a"
         d="m 550.992,260.625 v -1.471 H 548.7 v -2.524 l -1.815,-0.74 v 3.263 l -1.249,0.376 v 1.1 h 1.249 v 4.771 c 0,2.071 1.215,2.756 4.108,2.584 v -1.472 c -1.9,0.086 -2.242,-0.291 -2.242,-1.112 v -4.775 z"
         transform="translate(-511.906,-255.89)"
         id="path14"
         inkscape:connector-curvature="0"
         style="fill:#ffffff" />
      <path
         class="a"
         d="m 590.773,255.89 h -0.028 v 12.026 h 1.831 v -11.29 z"
         transform="translate(-548.586,-255.89)"
         id="path16"
         inkscape:connector-curvature="0"
         style="fill:#ffffff" />
      <path
         class="a"
         d="m 369.6,280.187 c -1.934,-0.257 -2.653,-0.325 -2.653,-0.736 0,-0.188 0.052,-0.394 0.736,-0.479 a 14.788,14.788 0 0 0 1.523,0.12 c 3.251,0 3.97,-1.266 3.97,-3.08 a 2.087,2.087 0 0 0 -0.976,-1.968 l 1.232,-0.359 v -0.873 h -3.85 c -3.525,0 -4.294,1.4 -4.294,3.183 a 2.36,2.36 0 0 0 1.318,2.207 c -0.89,0.223 -1.489,0.633 -1.489,1.386 0,1.557 2.4,1.66 4.4,2 1.318,0.222 2.293,0.376 2.293,1.078 0,0.513 -0.359,1.129 -2.378,1.129 -1.583,0 -2.16,-0.332 -2.389,-0.908 l -1.8,0.734 c 0.469,1.048 1.653,1.629 4.155,1.629 3.406,0 4.312,-1.386 4.312,-2.686 -0.003,-1.847 -2.244,-2.138 -4.11,-2.377 z m -0.393,-5.869 c 1.728,0 2.07,0.684 2.07,1.626 0,1.061 -0.394,1.779 -2.053,1.779 -1.711,0 -2.07,-0.753 -2.07,-1.779 0,-0.959 0.393,-1.626 2.053,-1.626 z"
         transform="translate(-365.118,-269.65)"
         id="path18"
         inkscape:connector-curvature="0"
         style="fill:#ffffff" />
    </g>
    <path
       class="a"
       d="m 182.888,254.621 c 0,0.05 0,0.1 0,0.15 0,0.286 -0.02,0.569 -0.049,0.848 A 9.885,9.885 0 0 1 173,264.505 h -12.225 a 9.885,9.885 0 0 1 -9.884,-9.735 c 0,-0.05 0,-0.1 0,-0.15 a 9.886,9.886 0 0 1 9.885,-9.885 H 173 a 9.887,9.887 0 0 1 9.464,7.024 h -1.956 a 8.034,8.034 0 0 0 -15.541,2.861 c 0,0.05 0,0.1 0,0.15 a 8.034,8.034 0 0 0 16,0.848 h -7.184 v -1.9 h 9.055 q 0.05,0.445 0.05,0.903 z"
       id="path22"
       inkscape:connector-curvature="0"
       style="fill:#ffffff" />
  </g>
</svg>
