<svg xmlns="http://www.w3.org/2000/svg" width="85.897" height="67" viewBox="0 0 85.897 67"><defs><style>.a{fill:none;}.b{fill:#e4262c;}.b,.c{fill-rule:evenodd;}.c{fill:#fff;}</style></defs><g transform="translate(-375.218 -314.917)"><rect class="a" width="85.897" height="67" transform="translate(375.218 314.917)"/><path class="b" d="M349.217,254.29a30,30,0,1,1-30,30A30.058,30.058,0,0,1,349.217,254.29Z" transform="translate(69 64.627)"/><path class="c" d="M371.788,273.085l1.746,1.746-5.9,5.952-1.745-1.745,5.9-5.952Zm-10.215,7.535a4.889,4.889,0,1,1-4.89,4.89,4.9,4.9,0,0,1,4.89-4.89Zm0,2.042a2.848,2.848,0,1,1-2.774,2.848A2.817,2.817,0,0,1,361.573,282.662Zm-25.7,3.286a6.364,6.364,0,0,1-.348.872,6.491,6.491,0,0,1-.6,1,6.345,6.345,0,0,1-5.1,2.629h0a6.289,6.289,0,0,1-4.516-1.931,6.606,6.606,0,0,1-1.86-4.6v-.009a6.594,6.594,0,0,1,1.862-4.6,6.281,6.281,0,0,1,4.511-1.929h.014a6.236,6.236,0,0,1,2.854.695h0a6.436,6.436,0,0,1,3.1,3.508H333.1a3.985,3.985,0,0,0-1.505-1.353l-.005,0a3.941,3.941,0,0,0-.542-.225,3.873,3.873,0,0,0-1.212-.2h-.014A3.874,3.874,0,0,0,327.041,281a4.183,4.183,0,0,0-1.173,2.916v.009a4.178,4.178,0,0,0,1.171,2.912,3.884,3.884,0,0,0,2.786,1.194h0a4,4,0,0,0,3.437-2.082ZM375,282.639v2.469H368.94V282.64Zm-13.917-11h2.468V277.7h-2.468v-6.061Zm-21.647,6.094v12.336h-2.444V277.735Zm3.869,9.763a.956.956,0,0,0,.384.8,1.694,1.694,0,0,0,1.012.274,1.92,1.92,0,0,0,1.492-.647,1.939,1.939,0,0,0,.494-1.221v-1.146a5.238,5.238,0,0,1-2.055.606,1.349,1.349,0,0,0-1.325,1.336Zm-2.333.171a2.75,2.75,0,0,1,.878-2.275,4.01,4.01,0,0,1,1.97-.773c.753-.092,1.41-.182,1.971-.265s.86-.332.9-.736a1.037,1.037,0,0,0-.282-.819,1.672,1.672,0,0,0-1.148-.292,2.063,2.063,0,0,0-1.293.318,1.16,1.16,0,0,0-.378.969h-2.264a2.883,2.883,0,0,1,.936-2.3,4.519,4.519,0,0,1,3-.852,5.165,5.165,0,0,1,2.752.655,2.084,2.084,0,0,1,1.052,1.807v5.673a1.174,1.174,0,0,0,.1.545.786.786,0,0,0,.386.358v.389h-2.51a1.2,1.2,0,0,1-.222-.494,3.967,3.967,0,0,1-.093-.623,2.591,2.591,0,0,1-1.078,1.007,3.991,3.991,0,0,1-1.81.422,3.023,3.023,0,0,1-2.148-.71,2.673,2.673,0,0,1-.712-2Zm12.449-2.384v4.785h-2.445v-9.012h2.265v1.629a4.1,4.1,0,0,1,.968-1.322,3.049,3.049,0,0,1,2.031-.621V283.2a4.505,4.505,0,0,0-1.915.257q-.855.326-.9,1.822Z" transform="translate(69 64.627)"/></g></svg>