<svg xmlns="http://www.w3.org/2000/svg" width="85.9" height="67.002" viewBox="0 0 85.9 67.002"><defs><style>.a{fill:none;}.b{fill:#023399;}.b,.c{fill-rule:evenodd;}.c{fill:#ffff03;}</style></defs><g transform="translate(-614.122 -1030.311)"><rect class="a" width="85.9" height="67.002" transform="translate(614.122 1030.311)"/><path class="b" d="M570.3,972.976h35.376a8.866,8.866,0,0,1,8.835,8.835v35.342a8.866,8.866,0,0,1-8.835,8.8H570.3a8.752,8.752,0,0,1-8.835-8.667V981.807a8.75,8.75,0,0,1,8.666-8.835h.169Z" transform="translate(69 64.627)"/><path class="c" d="M601.968,1003.018h2.863l3.541-3.575h-3.879l-2.529,3.575Zm-1.045.91h-4.114v7.656a6.362,6.362,0,0,0,1.517,4.586,4.822,4.822,0,0,0,3.541,1.281,4.894,4.894,0,0,0,4.519-2.394h.034v2.091h3.642v-13.22h-4.114v7.723a2.49,2.49,0,0,1-.1.809,2.556,2.556,0,0,1-2.529,1.72c-1.585,0-2.394-1.113-2.394-3.3v-6.947Zm-10.556,4.39a11.851,11.851,0,0,0-6.171,1.281,4.324,4.324,0,0,0-2.225,3.878,3.972,3.972,0,0,0,1.18,2.765,4.734,4.734,0,0,0,3.339,1.214,5.076,5.076,0,0,0,4.114-1.687h.1v1.383h3.777v-7.79a5.887,5.887,0,0,0-1.349-4.08,6.347,6.347,0,0,0-4.755-1.72,10.144,10.144,0,0,0-5.4,1.282l.775,2.6a7.289,7.289,0,0,1,3.912-1.045c1.821,0,2.7.573,2.7,1.787v.135Zm-10.016-4.384h-2.529v-4.485h-3.979v4.485h-1.889v3.035h1.889v5.328c0,1.821.337,3.17,1.113,3.946a4.2,4.2,0,0,0,3.2,1.214,6.308,6.308,0,0,0,2.226-.337l-.034-3.1a1.314,1.314,0,0,1-.776.168,1.565,1.565,0,0,1-1.416-.708,3.392,3.392,0,0,1-.337-1.821v-4.687h2.529v-3.035Zm5.429,9.207c0-1.585,1.585-2.293,4.687-2.259v1.416l-.034.776a2.235,2.235,0,0,1-1.012,1.214,2.532,2.532,0,0,1-1.686.607c-1.282,0-1.956-.607-1.956-1.754Zm-19.93-13.692v17.705h4.181V999.445Z" transform="translate(69 64.627)"/></g></svg>