<svg xmlns="http://www.w3.org/2000/svg" width="85.901" height="67" viewBox="0 0 85.901 67"><defs><style>.a{fill:none;}.b{fill:#ec0000;}</style></defs><g transform="translate(-375.217 -1030.312)"><rect class="a" width="85.897" height="67" transform="translate(375.217 1030.312)"/><path class="b" d="M317.554,998.553a3.429,3.429,0,0,0-.456-1.567l-2.481-4.289a3.4,3.4,0,0,1-.392-1.037l-.1.18a3.43,3.43,0,0,0,0,3.431l1.982,3.432a3.43,3.43,0,0,1,0,3.431l-.1.18a3.466,3.466,0,0,0-.393-1.037l-1.816-3.143-1.158-2.006a3.4,3.4,0,0,1-.392-1.037l-.1.18a3.429,3.429,0,0,0-.006,3.42h0l1.988,3.442a3.437,3.437,0,0,1,0,3.432l-.1.18a3.438,3.438,0,0,0-.392-1.037l-2.484-4.288a3.424,3.424,0,0,1-.456-1.865c-2.651.691-4.481,2.165-4.481,3.865,0,2.369,3.541,4.29,7.909,4.29s7.909-1.921,7.909-4.29C322.035,1000.72,320.2,999.246,317.554,998.553Zm7.463,7.325a4.98,4.98,0,0,1,.283-1.5,6.95,6.95,0,0,0,2.719.579c1.382,0,2.154-.446,2.154-1.322s-.556-1.264-1.956-1.873l-.758-.327c-1.4-.609-2.348-1.4-2.348-2.971,0-1.693,1.174-2.778,3.58-2.778a8.138,8.138,0,0,1,2.719.431,5.753,5.753,0,0,1-.3,1.485,7.532,7.532,0,0,0-2.437-.43c-1.293,0-1.886.505-1.886,1.292s.579,1.218,1.619,1.664l.8.342c1.886.8,2.674,1.649,2.674,3.09,0,1.708-1.293,2.883-3.818,2.883A7.159,7.159,0,0,1,325.017,1005.878Zm14.842-7.1v7.428h-1.5l-.089-.892a2.281,2.281,0,0,1-2.094,1.07c-1.961,0-3.268-1.427-3.268-3.922,0-2.615,1.4-4.1,4.145-4.1a8.33,8.33,0,0,1,2.81.414Zm-1.631,5.732v-4.664a6.685,6.685,0,0,0-1.173-.089c-1.694,0-2.481,1.04-2.481,2.7,0,1.515.609,2.585,2.065,2.585A2.558,2.558,0,0,0,338.228,1004.51Zm10-3.3v4.992h-1.635v-4.71c0-1.173-.387-1.738-2.02-1.738a8.113,8.113,0,0,0-1.293.119v6.329h-1.634v-7.426a13.854,13.854,0,0,1,2.971-.416c2.734,0,3.61,1.055,3.61,2.853Zm4.532,3.773a3.711,3.711,0,0,0,1.277-.223,13.084,13.084,0,0,1-.193,1.382,3.725,3.725,0,0,1-1.381.238,2.281,2.281,0,0,1-2.593-1.919,2.234,2.234,0,0,1-.007-.622v-7.8a5.653,5.653,0,0,1,1.635-.238v2.808h2.585a12.657,12.657,0,0,1-.149,1.4H351.5v3.639c0,.966.475,1.338,1.263,1.338Zm8.766-6.21v7.428h-1.5l-.089-.892a2.281,2.281,0,0,1-2.1,1.07c-1.961,0-3.268-1.427-3.268-3.922,0-2.615,1.4-4.1,4.145-4.1a8.336,8.336,0,0,1,2.811.419Zm-1.636,5.737v-4.664a6.685,6.685,0,0,0-1.173-.089c-1.694,0-2.482,1.04-2.482,2.7,0,1.515.61,2.585,2.065,2.585A2.563,2.563,0,0,0,359.89,1004.51Zm10-3.3v4.992h-1.635v-4.71c0-1.173-.387-1.738-2.02-1.738a8.113,8.113,0,0,0-1.293.119v6.329h-1.635v-7.426a13.853,13.853,0,0,1,2.971-.416c2.739,0,3.61,1.055,3.61,2.853Zm8.29-5.408v10.4h-1.5l-.088-.951a2.253,2.253,0,0,1-2.125,1.13c-1.96,0-3.268-1.427-3.268-3.922,0-2.615,1.4-4.1,4.145-4.1a6.314,6.314,0,0,1,1.218.119v-2.45a4.938,4.938,0,0,1,1.616-.223Zm-1.619,8.677v-4.574a6.462,6.462,0,0,0-1.307-.149c-1.619,0-2.391,1.01-2.391,2.7,0,1.515.609,2.585,2.065,2.585a2.621,2.621,0,0,0,1.631-.56Zm9.835-1.456H381.18a2.137,2.137,0,0,0,2.285,1.979c.051,0,.1-.009.152-.016a6.389,6.389,0,0,0,2.614-.566c-.059.43-.149.995-.253,1.485a5.632,5.632,0,0,1-2.407.476c-2.733,0-4.056-1.516-4.056-4.056,0-2.214,1.026-3.967,3.625-3.967a3.1,3.1,0,0,1,3.343,3.4,8.807,8.807,0,0,1-.088,1.267Zm-5.244-1.367h3.683a1.7,1.7,0,0,0-1.781-1.932c-1.161,0-1.77.672-1.9,1.934Zm10.965-3.236a6.162,6.162,0,0,1-.149,1.4,10.374,10.374,0,0,0-1.233-.059,8.168,8.168,0,0,0-1.2.089v6.358h-1.64v-7.432a9.927,9.927,0,0,1,2.793-.416A13.128,13.128,0,0,1,392.117,998.42Z" transform="translate(69 64.627)"/></g></svg>