<svg xmlns="http://www.w3.org/2000/svg" width="85.897" height="67" viewBox="0 0 85.897 67"><defs><style>.a{fill:#0033c6;}.b{fill:#e71a3b;}.c{fill:#f4f2f1;}.d{fill:none;}</style></defs><g transform="translate(-306.214 -512.138)"><g transform="translate(-125.799 371.065)"><g transform="translate(456.464 151.5)"><path class="a" d="M484.268,173.317a10.348,10.348,0,0,0,7.184-10.244c0-7.117-5.654-11.574-14.9-11.574H456.464v45.231h20.753c10.044,0,16.43-4.989,16.43-12.372C493.647,178.9,490.587,174.515,484.268,173.317Z" transform="translate(-456.464 -151.5)"/><g transform="translate(0 0)"><path class="b" d="M476.552,151.5H456.464v11.877h34.977c0-.1.011-.2.011-.3C491.452,155.957,485.8,151.5,476.552,151.5Z" transform="translate(-456.464 -151.5)"/></g></g><g transform="translate(458.585 186.197)"><g transform="translate(0.311 4.302)"><path class="c" d="M484.034,560.477a.816.816,0,0,0,.566-.808c0-.561-.446-.912-1.175-.912h-1.584v3.566h1.636c.792,0,1.3-.393,1.3-.975A.839.839,0,0,0,484.034,560.477ZM482.34,559.2h1.033c.477,0,.75.2.75.535,0,.357-.278.577-.787.577h-1Zm1.117,2.685H482.34v-1.127h1.133c.5,0,.807.189.807.535S483.987,561.882,483.457,561.882Z" transform="translate(-481.842 -558.736)"/><path class="c" d="M517.852,558.538l-1.589,3.587h.535l.4-.918h1.783l.4.918h.535l-1.589-3.587Zm-.456,2.208.692-1.6.692,1.6Z" transform="translate(-512.965 -558.538)"/><path class="c" d="M563.176,560.335h-1.966v-1.578h-.5v3.566h.5V560.8h1.966v1.526h.5v-3.566h-.5Z" transform="translate(-553.154 -558.736)"/><rect class="c" width="0.498" height="3.566" transform="translate(11.513 0.021)"/><path class="c" d="M615.5,558.538h-.472l-1.589,3.587h.535l.4-.918h1.783l.4.918h.535Zm-.928,2.208.692-1.6.692,1.6Z" transform="translate(-600.832 -558.538)"/></g><g transform="translate(0)"><path class="c" d="M519.218,514.241l-1.516,3.587h.944l.236-.613h1.51l.241.613h.944l-1.51-3.587Zm-.042,2.218.461-1.185.461,1.185Z" transform="translate(-513.957 -514.183)"/><path class="c" d="M561.97,515.176l-.5-.115c-.283-.058-.43-.147-.43-.351,0-.231.2-.367.519-.367a.538.538,0,0,1,.587.483h.891a1.37,1.37,0,0,0-1.526-1.185c-.839,0-1.416.451-1.416,1.164,0,.566.33.886,1.033,1.038l.587.126c.31.057.378.189.378.315,0,.2-.189.325-.5.325a.674.674,0,0,1-.745-.519h-.892a1.446,1.446,0,0,0,1.61,1.269c.891,0,1.479-.446,1.479-1.159C563.045,515.584,562.625,515.317,561.97,515.176Z" transform="translate(-552.161 -513.639)"/><path class="c" d="M596.08,514.241l-1.516,3.587h.944l.236-.613h1.51l.241.613h.944l-1.51-3.587Zm-.042,2.218.461-1.185.462,1.185Z" transform="translate(-583.453 -514.183)"/><path class="c" d="M638.831,515.176l-.5-.115c-.283-.058-.43-.147-.43-.351,0-.231.2-.367.519-.367a.538.538,0,0,1,.587.483h.891a1.37,1.37,0,0,0-1.526-1.185c-.839,0-1.416.451-1.416,1.164,0,.566.33.886,1.033,1.038l.587.126c.31.057.378.189.378.315,0,.2-.189.325-.5.325a.674.674,0,0,1-.745-.519h-.891a1.446,1.446,0,0,0,1.61,1.269c.891,0,1.479-.446,1.479-1.159C639.906,515.584,639.486,515.317,638.831,515.176Z" transform="translate(-621.658 -513.639)"/><path class="c" d="M481.365,515.854a.852.852,0,0,1-.881.724,1.029,1.029,0,0,1,0-2.056.851.851,0,0,1,.881.723l.889-.141a1.717,1.717,0,0,0-1.765-1.411,1.857,1.857,0,1,0,0,3.713,1.717,1.717,0,0,0,1.766-1.413l-.876-.139Z" transform="translate(-478.601 -513.689)"/></g></g></g><rect class="d" width="85.897" height="67" transform="translate(306.214 512.138)"/></g></svg>