<svg xmlns="http://www.w3.org/2000/svg" xmlns:xlink="http://www.w3.org/1999/xlink" width="85.897" height="67" viewBox="0 0 85.897 67"><defs><style>.a{fill:none;}.b{fill:#f99d1c;}.c{fill:url(#a);}.d{fill:url(#b);}.e{fill:url(#c);}.f{fill:url(#d);}</style><linearGradient id="a" x1="-36.082" y1="8.19" x2="-36.082" y2="8.233" gradientUnits="objectBoundingBox"><stop offset="0.45" stop-color="#f99d1c"/><stop offset="0.8" stop-color="#f58220"/></linearGradient><linearGradient id="b" x1="-25.948" y1="8.3" x2="-25.948" y2="8.344" xlink:href="#a"/><linearGradient id="c" x1="-9.613" y1="7.229" x2="-9.613" y2="7.266" xlink:href="#a"/><linearGradient id="d" x1="-35.929" y1="8.291" x2="-35.929" y2="8.335" xlink:href="#a"/></defs><g transform="translate(-744.572 -1030.312)"><rect class="a" width="85.897" height="67" transform="translate(744.572 1030.312)"/><g transform="translate(69 64.627)"><path class="b" d="M688.786,979.793a1.8,1.8,0,0,1,.685.627,1.692,1.692,0,0,1,.256.9,1.439,1.439,0,0,1-.256.842,1.722,1.722,0,0,1-.677.578,1.781,1.781,0,0,1,.965.611,1.691,1.691,0,0,1,.355,1.106,2.088,2.088,0,0,1-.272,1.064,1.907,1.907,0,0,1-.759.726,2.3,2.3,0,0,1-1.106.264h-2.268a.424.424,0,0,1-.281-.091.334.334,0,0,1-.107-.258v-6.253a.338.338,0,0,1,.328-.347h2.181A1.966,1.966,0,0,1,688.786,979.793Zm-.083,2.36a1.07,1.07,0,0,0,.338-.842.993.993,0,0,0-.338-.8,1.322,1.322,0,0,0-.891-.281h-1.8v2.232h1.815a1.249,1.249,0,0,0,.877-.309Zm.322,3.3a1.3,1.3,0,0,0,.4-1.007,1.22,1.22,0,0,0-.4-.965,1.531,1.531,0,0,0-1.056-.363h-1.955v2.706h1.964a1.427,1.427,0,0,0,1.043-.371Z"/><path class="b" d="M694.289,981.922a2.367,2.367,0,0,1,.891.891,2.52,2.52,0,0,1,.322,1.262v2.087a.335.335,0,0,1-.1.239.339.339,0,0,1-.248.1.369.369,0,0,1-.248-.091.323.323,0,0,1-.1-.248v-.536a2.159,2.159,0,0,1-.792.668,2.266,2.266,0,0,1-1.056.248,2.347,2.347,0,0,1-1.221-.322,2.282,2.282,0,0,1-.858-.891,2.567,2.567,0,0,1-.314-1.254,2.52,2.52,0,0,1,.322-1.262,2.3,2.3,0,0,1,.891-.891,2.6,2.6,0,0,1,2.508,0Zm-.338,3.762a1.709,1.709,0,0,0,.644-.66,2,2,0,0,0,0-1.9,1.787,1.787,0,0,0-.644-.668,1.8,1.8,0,0,0-2.484.668,1.9,1.9,0,0,0-.239.949,1.923,1.923,0,0,0,.239.949,1.662,1.662,0,0,0,.652.66,1.837,1.837,0,0,0,.916.239A1.806,1.806,0,0,0,693.951,985.684Z"/><path class="b" d="M699.693,981.856a1.921,1.921,0,0,1,.784.776,2.477,2.477,0,0,1,.281,1.221v2.31a.344.344,0,0,1-.586.238.327.327,0,0,1-.1-.239v-2.31a1.6,1.6,0,0,0-.437-1.2,1.63,1.63,0,0,0-1.147-.413,1.84,1.84,0,0,0-.784.165,1.335,1.335,0,0,0-.553.47,1.111,1.111,0,0,0-.206.66v2.632a.371.371,0,0,1-.091.248.318.318,0,0,1-.248.091.367.367,0,0,1-.247-.091.323.323,0,0,1-.1-.248v-4.174a.35.35,0,0,1,.594-.248.333.333,0,0,1,.091.248v.3a2,2,0,0,1,.71-.512,2.2,2.2,0,0,1,.908-.19A2.331,2.331,0,0,1,699.693,981.856Z"/><path class="b" d="M705.576,982.45a.262.262,0,0,1,.074.19.323.323,0,0,1-.314.3.341.341,0,0,1-.256-.132,1.811,1.811,0,0,0-.586-.437,1.674,1.674,0,0,0-.71-.149,1.592,1.592,0,0,0-1.46.9,2.11,2.11,0,0,0-.206.957,2.009,2.009,0,0,0,.223.949,1.646,1.646,0,0,0,.619.66,1.771,1.771,0,0,0,.916.239,1.678,1.678,0,0,0,1.147-.38.354.354,0,0,1,.239-.1.3.3,0,0,1,.2.074.312.312,0,0,1,.124.239.283.283,0,0,1-.091.2,2.289,2.289,0,0,1-1.617.594,2.439,2.439,0,0,1-1.246-.322,2.3,2.3,0,0,1-.866-.891,2.731,2.731,0,0,1-.008-2.525,2.193,2.193,0,0,1,.833-.883,2.272,2.272,0,0,1,1.2-.322A2.175,2.175,0,0,1,705.576,982.45Z"/><path class="b" d="M709.883,981.914a2.346,2.346,0,0,1,.883.891,2.533,2.533,0,0,1,.322,1.271,2.48,2.48,0,0,1-.322,1.262,2.34,2.34,0,0,1-.883.883,2.524,2.524,0,0,1-1.262.322,2.477,2.477,0,0,1-1.262-.322,2.326,2.326,0,0,1-.883-.883,2.653,2.653,0,0,1,0-2.533,2.339,2.339,0,0,1,.883-.891,2.52,2.52,0,0,1,1.262-.322A2.652,2.652,0,0,1,709.883,981.914Zm-2.178.545a1.716,1.716,0,0,0-.652.66,2.018,2.018,0,0,0,0,1.906,1.663,1.663,0,0,0,.652.66,1.888,1.888,0,0,0,1.84,0,1.709,1.709,0,0,0,.644-.66,1.905,1.905,0,0,0,.231-.949,1.932,1.932,0,0,0-.231-.957,1.7,1.7,0,0,0-.644-.66A1.889,1.889,0,0,0,707.705,982.459Z"/></g><g transform="translate(69 64.627)"><path class="c" d="M749.676,1004.306h-4.241a1.774,1.774,0,0,0-1.717,1.336c-.008.033-.016.066-.025.107a1.789,1.789,0,0,0,1.774,2.112h.363a.248.248,0,0,1,.247.248v1.964a.709.709,0,0,1-.544.693,5.786,5.786,0,0,1-2.756-.033,5.327,5.327,0,0,1-3.984-6.393c.013-.053.026-.106.04-.158a5.609,5.609,0,0,1,6.84-3.779c.124.033.239.066.355.107h0c.091.033.182.066.272.091a3.11,3.11,0,0,0,3.8-2.207l.008-.029a3.167,3.167,0,0,0-2.2-3.878H747.9c-.173-.05-.346-.107-.528-.148a12.2,12.2,0,0,0-14.876,8.234,11.6,11.6,0,0,0,8.258,14.175c.11.029.22.056.331.082a12.548,12.548,0,0,0,10.148-1.733,3.112,3.112,0,0,0,1.361-2.591v-5.239A2.967,2.967,0,0,0,749.676,1004.306Z"/><path class="d" d="M729.6,997.879a4.639,4.639,0,0,0-.388-1.229,4.539,4.539,0,0,0-8.424.635l-1.848,5.61a.258.258,0,0,1-.487,0l-1.848-5.61a4.536,4.536,0,0,0-8.812.594l-2.64,14.48a3.72,3.72,0,0,0,2.585,4.542,3.646,3.646,0,0,0,4.461-2.585l.011-.039.784-4.546a.255.255,0,0,1,.5-.033l1.436,4.538a3.993,3.993,0,0,0,5.656,2.335,3.957,3.957,0,0,0,1.889-2.31l1.452-4.563a.255.255,0,0,1,.5.033l.784,4.546a3.639,3.639,0,0,0,4.421,2.637l.051-.013a3.761,3.761,0,0,0,2.582-4.546Z"/><path class="e" d="M749.7,1002.383h-.016a.234.234,0,0,1-.116-.437,5.1,5.1,0,0,0-1.163-9.331c-.206-.066-.4-.116-.569-.157a14.58,14.58,0,0,0-3.63-.462,14.188,14.188,0,0,0-12.1,6.658.233.233,0,0,1-.429-.083l-.19-1.048a6.978,6.978,0,0,0-.553-1.733,6.525,6.525,0,0,0-5.8-3.638,6.157,6.157,0,0,0-1.691.231,6.507,6.507,0,0,0-4.48,4.3l-.041.132a.235.235,0,0,1-.446,0l-.041-.132a6.457,6.457,0,0,0-11.972-.891,6.239,6.239,0,0,0-.553,1.733l-.8,4.406a.223.223,0,0,1-.371.124.232.232,0,0,1-.066-.19,9.38,9.38,0,0,0,.083-1.172,8.656,8.656,0,0,0-8.647-8.548h-8.618a4.161,4.161,0,0,0-4.158,4.158v18.481a4.162,4.162,0,0,0,4.158,4.158l10.627.008a8.274,8.274,0,0,0,5.569-2.137l.182-.173a.227.227,0,0,1,.322,0,.244.244,0,0,1,.025.03,5.553,5.553,0,0,0,3.011,2.071,5.475,5.475,0,0,0,1.452.2,5.571,5.571,0,0,0,4.728-2.657.231.231,0,0,1,.318-.076.266.266,0,0,1,.07.068,5.923,5.923,0,0,0,4.9,2.657h.033a5.891,5.891,0,0,0,2.739-.685,5.761,5.761,0,0,0,2.137-1.964.236.236,0,0,1,.325-.071.248.248,0,0,1,.075.079,5.525,5.525,0,0,0,9.925-1.032.233.233,0,0,1,.38-.091,14.072,14.072,0,0,0,6.3,3.473,14.619,14.619,0,0,0,3.63.462,14.373,14.373,0,0,0,8.069-2.459,5.034,5.034,0,0,0,2.211-4.183v-5.231A4.91,4.91,0,0,0,749.7,1002.383Zm3.68,10.1a3.915,3.915,0,0,1-1.716,3.251,13.228,13.228,0,0,1-7.442,2.269,13.558,13.558,0,0,1-3.35-.421,12.8,12.8,0,0,1-7.657-5.454.108.108,0,0,0-.2.074,4.544,4.544,0,0,1-3.152,5.47,4.255,4.255,0,0,1-1.155.157h0a4.465,4.465,0,0,1-4.3-3.35l-.008-.033-.338-1.955a.108.108,0,0,0-.125-.086.105.105,0,0,0-.081.069l-.644,2.021a4.688,4.688,0,0,1-4.488,3.325H718.7a4.841,4.841,0,0,1-4.554-3.333l-.627-2a.106.106,0,0,0-.206.016l-.33,1.939-.008.033a4.467,4.467,0,0,1-4.3,3.35h0a4.252,4.252,0,0,1-1.155-.157,4.478,4.478,0,0,1-3.094-3.028.164.164,0,0,0-.3-.041,7.419,7.419,0,0,1-.916,1.122,7.161,7.161,0,0,1-5.1,2.112l-10.627-.008a3.028,3.028,0,0,1-3.044-3.012V996.319a3.042,3.042,0,0,1,3.04-3.044H696.1a7.437,7.437,0,0,1,6.336,11.468.1.1,0,0,0,.024.139h0a7.242,7.242,0,0,1,2.447,3.313.108.108,0,0,0,.14.06.109.109,0,0,0,.066-.077l1.906-10.445a5.351,5.351,0,0,1,5.264-4.447,5.3,5.3,0,0,1,1.394.19,5.4,5.4,0,0,1,3.713,3.564l1,3.028a.352.352,0,0,0,.668,0l1-3.028a5.4,5.4,0,0,1,3.7-3.564,5.3,5.3,0,0,1,1.394-.19,5.4,5.4,0,0,1,4.8,3.011,5.791,5.791,0,0,1,.462,1.436l.833,4.587a.252.252,0,0,0,.487.025v-.008a12.89,12.89,0,0,1,12.5-9.216,13.518,13.518,0,0,1,3.35.421q.247.061.545.149h.008a3.975,3.975,0,0,1,2.764,4.851,3.93,3.93,0,0,1-3.779,2.945,3.551,3.551,0,0,1-.66-.058l-.38-.083a2.631,2.631,0,0,1-.3-.1c-.116-.033-.206-.066-.3-.091a4.942,4.942,0,0,0-1.246-.157,4.763,4.763,0,0,0-4.62,3.383,4.35,4.35,0,0,0,.429,3.358,4.713,4.713,0,0,0,2.945,2.2,4.936,4.936,0,0,0,1.246.157,6.092,6.092,0,0,0,.66-.041.465.465,0,0,0,.4-.462v-.561a.469.469,0,0,0-.355-.454,2.591,2.591,0,0,1-1.477-.908,2.529,2.529,0,0,1-.528-2.1c.008-.049.025-.1.033-.148a2.572,2.572,0,0,1,2.483-1.931H749.7a3.752,3.752,0,0,1,3.7,3.738v5.256Zm-11.468-6.13a3.97,3.97,0,0,0,.215.85,5.5,5.5,0,0,0,.4.842l.008.016a.324.324,0,0,1-.113.444l0,0a.321.321,0,0,1-.33,0,3.242,3.242,0,0,1-1.4-1.873,3.555,3.555,0,0,1-.149-1.221,3.634,3.634,0,0,1,.266-1.217,3.892,3.892,0,0,1,1.535-1.873,3.4,3.4,0,0,1,2.269-.5.32.32,0,0,1,.273.362v.009a.318.318,0,0,1-.239.264h-.016a3.944,3.944,0,0,0-1.6.833,3.414,3.414,0,0,0-.949,1.394,3.042,3.042,0,0,0-.182.817,4.165,4.165,0,0,0,.016.85Z"/><path class="f" d="M701.547,1005.23a.345.345,0,0,1-.108-.476l.017-.024a6.634,6.634,0,0,0-5.269-10.663h-8.7a2.246,2.246,0,0,0-2.244,2.244v18.481a2.246,2.246,0,0,0,2.244,2.244l10.627.008a6.413,6.413,0,0,0,6.411-6.411h0A6.418,6.418,0,0,0,701.547,1005.23Zm-5.858,5.66a1.452,1.452,0,0,1-1.064.47h-1.54a.423.423,0,0,1-.421-.421v-2.046a.423.423,0,0,1,.421-.421h1.5a1.477,1.477,0,0,1,1.477,1.3,1.44,1.44,0,0,1-.37,1.118Zm0-8.82a1.452,1.452,0,0,1-1.064.47h-1.54a.423.423,0,0,1-.421-.421v-2.046a.423.423,0,0,1,.421-.421h1.5a1.477,1.477,0,0,1,1.477,1.3,1.44,1.44,0,0,1-.37,1.115Z"/></g></g></svg>