<svg xmlns="http://www.w3.org/2000/svg" xmlns:xlink="http://www.w3.org/1999/xlink" width="85.9" height="67" viewBox="0 0 85.9 67"><defs><style>.a{fill:none;}.b{fill:#fff;}.c{fill:#fbda2c;}.d{fill:#124c8a;}.e{clip-path:url(#a);}</style><clipPath id="a"><rect class="a" width="85.897" height="26.146" transform="translate(545.122 449.565)"/></clipPath></defs><g transform="translate(-614.122 -493.765)"><rect class="a" width="85.897" height="67" transform="translate(614.122 493.765)"/><g transform="translate(69 64.627)"><path class="b" d="M631.022,449.565l-85.9,6.632V475.71h85.9Z"/><rect class="c" width="83.293" height="16.1" transform="translate(546.39 458.415)"/><path class="d" d="M546.39,456.965h83.293v-5.733Z"/><g class="e"><path class="d" d="M550.746,465.857h.47c.6,0,.693-.32.693-1.118,0-1.073-.316-1.073-.949-1.073h-.214Zm-1.879-3.762h2.011c2.062,0,2.909.375,2.909,2.689,0,1.3-.3,2.645-1.981,2.645h-1.061v3.508h-1.879Z"/><path class="d" d="M554.713,462.1h4.13v1.7h-2.272v1.76h1.989v1.7h-1.989v1.97h2.363v1.7h-4.221Z"/><path class="d" d="M561.883,465.614h.445c.624,0,.624-.465.624-1.04,0-.62,0-.974-.712-.974h-.356Zm-1.82-3.519h2.4c1.623,0,2.3.542,2.3,2.135,0,1.041-.129,1.716-1.1,2.048v.022a1.346,1.346,0,0,1,1.059,1.406v1.56a3.917,3.917,0,0,0,.188,1.671h-1.8a3.875,3.875,0,0,1-.208-1.671V467.85c0-.509-.178-.731-.692-.731h-.337v3.818h-1.82Z"/><path class="d" d="M566.023,462.1h2.065l1.52,5.213h.02V462.1h1.828v8.843H569.4l-1.531-5.468h-.02v5.468h-1.828Z"/><path class="d" d="M574.5,467.794h.935L575,463.466h-.02Zm-.752-5.7h2.481l1.526,8.842h-1.963l-.173-1.571h-1.312l-.193,1.571h-1.871Z"/><path class="d" d="M578.6,462.1h3.026l.542,4.382h.021l.542-4.382h3.022v8.843H583.9v-6.873h-.021l-1.074,6.873h-1.251l-1.073-6.873h-.021v6.873H578.6Z"/><path class="d" d="M588.578,465.592h.347c.591,0,.652-.476.652-1.03,0-.619-.122-.962-.581-.962h-.418Zm0,3.84h.387c.622,0,.693-.332.693-1.206,0-.609-.071-1.2-.652-1.2h-.429ZM586.7,462.1h2.6c1.366,0,2.029.564,2.029,2.081,0,.929-.123,1.748-1.031,2.08v.022c.918.178,1.234.919,1.234,2.037,0,1.483-.5,2.622-2.172,2.622H586.7Z"/><path class="d" d="M592.548,462.1h1.876v6.456c0,.477,0,.9.54.9s.54-.421.54-.9V462.1h1.876v6.432a2.429,2.429,0,1,1-4.832,0Z"/><path class="d" d="M598.28,464.505a2.285,2.285,0,0,1,1.986-2.548,2.378,2.378,0,0,1,.43-.012,2.284,2.284,0,0,1,2.429,2.128,2.312,2.312,0,0,1-.013.432v.821h-1.875v-1c0-.3,0-.808-.541-.808s-.54.509-.54.808V468.7c0,.233,0,.808.54.808s.541-.576.541-.808v-1.3h1.875v1.118a2.429,2.429,0,1,1-4.832,0Z"/><path class="d" d="M605.816,467.794h.935l-.437-4.328h-.021Zm-.752-5.7h2.482l1.526,8.842h-1.963l-.173-1.571h-1.308l-.193,1.571h-1.871Z"/><path class="d" d="M609.859,462.1h2.064l1.52,5.213h.02V462.1h1.828v8.843h-2.054l-1.53-5.468h-.02v5.468h-1.829Z"/><path class="d" d="M618.109,467.794h.935l-.436-4.328h-.021Zm-.752-5.7h2.482l1.526,8.842H619.4l-.173-1.571h-1.312l-.193,1.571h-1.871Z"/><path class="d" d="M623.665,467.941v.654c0,.477.1.919.633.919a.626.626,0,0,0,.656-.594.563.563,0,0,0,0-.092c0-.776-.746-1.3-1.491-1.884-.756-.676-1.513-1.164-1.513-2.516a2.164,2.164,0,0,1,2.4-2.482,2.046,2.046,0,0,1,2.335,1.708,2.011,2.011,0,0,1,.014.52v.8H624.94V464.5c0-.442-.061-.974-.593-.974a.607.607,0,0,0-.645.565.667.667,0,0,0,0,.1c0,.531.8,1.142,1.562,1.762.7.665,1.562,1.1,1.562,2.881a2.309,2.309,0,0,1-2.345,2.273c-.069,0-.139-.006-.209-.013a2.177,2.177,0,0,1-2.416-1.908,2.269,2.269,0,0,1-.015-.286v-.953Z"/></g></g><path class="b" d="M631.022,449.565l-85.9,6.632V475.71h85.9Z" transform="translate(69 64.627)"/><rect class="c" width="83.293" height="16.1" transform="translate(615.39 523.042)"/><path class="d" d="M546.39,456.965h83.293v-5.733Z" transform="translate(69 64.627)"/><g transform="translate(69 64.627)"><g class="e"><path class="d" d="M550.746,465.857h.47c.6,0,.693-.32.693-1.118,0-1.073-.316-1.073-.949-1.073h-.214Zm-1.879-3.762h2.011c2.062,0,2.909.375,2.909,2.689,0,1.3-.3,2.645-1.981,2.645h-1.061v3.508h-1.879Z"/><path class="d" d="M554.713,462.1h4.13v1.7h-2.272v1.76h1.989v1.7h-1.989v1.97h2.363v1.7h-4.221Z"/><path class="d" d="M561.883,465.614h.445c.624,0,.624-.465.624-1.04,0-.62,0-.974-.712-.974h-.356Zm-1.82-3.519h2.4c1.623,0,2.3.542,2.3,2.135,0,1.041-.129,1.716-1.1,2.048v.022a1.346,1.346,0,0,1,1.059,1.406v1.56a3.917,3.917,0,0,0,.188,1.671h-1.8a3.875,3.875,0,0,1-.208-1.671V467.85c0-.509-.178-.731-.692-.731h-.337v3.818h-1.82Z"/><path class="d" d="M566.023,462.1h2.065l1.52,5.213h.02V462.1h1.828v8.843H569.4l-1.531-5.468h-.02v5.468h-1.828Z"/><path class="d" d="M574.5,467.794h.935L575,463.466h-.02Zm-.752-5.7h2.481l1.526,8.842h-1.963l-.173-1.571h-1.312l-.193,1.571h-1.871Z"/><path class="d" d="M578.6,462.1h3.026l.542,4.382h.021l.542-4.382h3.022v8.843H583.9v-6.873h-.021l-1.074,6.873h-1.251l-1.073-6.873h-.021v6.873H578.6Z"/><path class="d" d="M588.578,465.592h.347c.591,0,.652-.476.652-1.03,0-.619-.122-.962-.581-.962h-.418Zm0,3.84h.387c.622,0,.693-.332.693-1.206,0-.609-.071-1.2-.652-1.2h-.429ZM586.7,462.1h2.6c1.366,0,2.029.564,2.029,2.081,0,.929-.123,1.748-1.031,2.08v.022c.918.178,1.234.919,1.234,2.037,0,1.483-.5,2.622-2.172,2.622H586.7Z"/><path class="d" d="M592.548,462.1h1.876v6.456c0,.477,0,.9.54.9s.54-.421.54-.9V462.1h1.876v6.432a2.429,2.429,0,1,1-4.832,0Z"/><path class="d" d="M598.28,464.505a2.285,2.285,0,0,1,1.986-2.548,2.378,2.378,0,0,1,.43-.012,2.284,2.284,0,0,1,2.429,2.128,2.312,2.312,0,0,1-.013.432v.821h-1.875v-1c0-.3,0-.808-.541-.808s-.54.509-.54.808V468.7c0,.233,0,.808.54.808s.541-.576.541-.808v-1.3h1.875v1.118a2.429,2.429,0,1,1-4.832,0Z"/><path class="d" d="M605.816,467.794h.935l-.437-4.328h-.021Zm-.752-5.7h2.482l1.526,8.842h-1.963l-.173-1.571h-1.308l-.193,1.571h-1.871Z"/><path class="d" d="M609.859,462.1h2.064l1.52,5.213h.02V462.1h1.828v8.843h-2.054l-1.53-5.468h-.02v5.468h-1.829Z"/><path class="d" d="M618.109,467.794h.935l-.436-4.328h-.021Zm-.752-5.7h2.482l1.526,8.842H619.4l-.173-1.571h-1.312l-.193,1.571h-1.871Z"/><path class="d" d="M623.665,467.941v.654c0,.477.1.919.633.919a.626.626,0,0,0,.656-.594.563.563,0,0,0,0-.092c0-.776-.746-1.3-1.491-1.884-.756-.676-1.513-1.164-1.513-2.516a2.164,2.164,0,0,1,2.4-2.482,2.046,2.046,0,0,1,2.335,1.708,2.011,2.011,0,0,1,.014.52v.8H624.94V464.5c0-.442-.061-.974-.593-.974a.607.607,0,0,0-.645.565.667.667,0,0,0,0,.1c0,.531.8,1.142,1.562,1.762.7.665,1.562,1.1,1.562,2.881a2.309,2.309,0,0,1-2.345,2.273c-.069,0-.139-.006-.209-.013a2.177,2.177,0,0,1-2.416-1.908,2.269,2.269,0,0,1-.015-.286v-.953Z"/></g></g></g></svg>