<svg xmlns="http://www.w3.org/2000/svg" xmlns:xlink="http://www.w3.org/1999/xlink" width="85.897" height="67" viewBox="0 0 85.897 67"><defs><style>.a{fill:none;}.b{fill:url(#a);}.c{fill:#fff;}</style><linearGradient id="a" y1="14.62" x2="1" y2="14.62" gradientUnits="objectBoundingBox"><stop offset="0" stop-color="#e9278b"/><stop offset="0.062" stop-color="#d528ab"/><stop offset="0.136" stop-color="#c129c9"/><stop offset="0.214" stop-color="#b229e1"/><stop offset="0.297" stop-color="#a72af2"/><stop offset="0.387" stop-color="#a12afc"/><stop offset="0.5" stop-color="#9f2aff"/><stop offset="0.598" stop-color="#9c2dff"/><stop offset="0.676" stop-color="#9237ff"/><stop offset="0.748" stop-color="#8248ff"/><stop offset="0.816" stop-color="#6a60ff"/><stop offset="0.881" stop-color="#4c7fff"/><stop offset="0.943" stop-color="#28a4ff"/><stop offset="1" stop-color="#00cdff"/></linearGradient></defs><g transform="translate(-674.733 -326.991)"><rect class="a" width="85.897" height="67" transform="translate(674.733 326.991)"/><path class="b" d="M748.929,365.907c0,9.745-12.752,21.795-29.387,21.795-18.2,0-33.107-10.6-33.107-28.206,0-12.061,8.154-26.216,23.643-26.216,13.792,0,18.916,9.686,25.62,14.132C743.173,352.36,748.929,356.771,748.929,365.907Z"/><path class="c" d="M723.285,354.8a2.515,2.515,0,1,0-2.5-2.515A2.511,2.511,0,0,0,723.285,354.8Zm.036,1.86c-1.416,0-2.562,3.358-2.562,7.5s1.146,7.5,2.562,7.5,2.562-3.358,2.562-7.5S724.724,356.665,723.321,356.665Zm-11.406-.011c-4.212,0-7.008,3.334-7.008,7.5s2.8,7.5,7.008,7.5,6.984-3.322,6.984-7.5-2.8-7.5-6.984-7.5Zm0,11.476c-1.931,0-2.995-1.977-2.995-3.989s1.064-3.931,2.995-3.931,2.983,1.93,2.983,3.931S713.833,368.13,711.915,368.13Z"/></g></svg>