<svg xmlns="http://www.w3.org/2000/svg" width="218.275" height="37.54" viewBox="0 0 218.275 37.54"><defs><style>.a{fill:#0cd7fb;}.b{fill:#135df5;}.c{fill:#77787b;}</style></defs><g transform="translate(-379.487 -154.495)"><g transform="translate(69 64.627)"><path class="a" d="M328.291,116.538l.028.029a4.461,4.461,0,0,0,6.307,0l.962-.963a4.463,4.463,0,0,1,3.166-1.311,4.413,4.413,0,0,1,2.188.573,4.33,4.33,0,0,1,.978.738,4.421,4.421,0,0,1,.8,1.1,4.482,4.482,0,0,1-.8,5.236l-2.849,2.85a8.959,8.959,0,0,1-12.664,0l-13.3-13.3a8.955,8.955,0,0,1,12.664-12.664l6.966,6.965-4.445,4.445A4.455,4.455,0,0,0,328.291,116.538Z"/><path class="b" d="M358.7,92.492a8.956,8.956,0,0,1,0,12.664l-16.781,16.78a4.473,4.473,0,0,0,0-6.332,4.3,4.3,0,0,0-.978-.738,4.413,4.413,0,0,0-2.188-.573,4.463,4.463,0,0,0-3.166,1.311l-.962.962a4.459,4.459,0,0,1-6.307,0l-.029-.028a4.456,4.456,0,0,1,0-6.3l17.742-17.742A8.952,8.952,0,0,1,358.7,92.492Z"/></g><path class="c" d="M370.555,116.854a4.048,4.048,0,0,1,2.113-3.927,13.508,13.508,0,0,1,6.128-1.109h1.55v-.649a4.451,4.451,0,0,0-.863-2.741,3.067,3.067,0,0,0-2.624-1.154,5.789,5.789,0,0,0-2.659.582,8.784,8.784,0,0,1-1.25.581,1.112,1.112,0,0,1-.969-.581,2.352,2.352,0,0,1-.37-1.286q0-.915,1.709-1.585a9.807,9.807,0,0,1,3.61-.669q3.627,0,5.371,1.955a7.059,7.059,0,0,1,1.743,4.878v8.84a1.06,1.06,0,0,1-.511.863,2.138,2.138,0,0,1-1.285.37,1.944,1.944,0,0,1-1.2-.37,1.066,1.066,0,0,1-.493-.863v-1.233a6.913,6.913,0,0,1-5.318,2.747,4.819,4.819,0,0,1-3.364-1.2A4.423,4.423,0,0,1,370.555,116.854Zm3.733-.458a2.2,2.2,0,0,0,.634,1.709,2.356,2.356,0,0,0,1.656.581,3.729,3.729,0,0,0,2.553-1.127,3.27,3.27,0,0,0,1.215-2.395v-1.3h-.881a19.462,19.462,0,0,0-2.588.14,3.828,3.828,0,0,0-1.8.74A1.96,1.96,0,0,0,374.288,116.4Z" transform="translate(69 64.627)"/><path class="c" d="M386.9,114.5v-3.17a7.081,7.081,0,0,1,1.831-5.072,7.166,7.166,0,0,1,5.459-1.937,8.381,8.381,0,0,1,3.839.792q1.549.793,1.55,1.779a2.007,2.007,0,0,1-.441,1.2,1.272,1.272,0,0,1-1.039.6,5.756,5.756,0,0,1-1.25-.528,5.319,5.319,0,0,0-2.377-.528q-3.875,0-3.875,3.708v3.149q0,3.709,3.91,3.709a5.115,5.115,0,0,0,2.413-.564,5.069,5.069,0,0,1,1.285-.563,1.388,1.388,0,0,1,1.145.563,1.917,1.917,0,0,1,.44,1.2q0,.985-1.62,1.831a8.44,8.44,0,0,1-3.945.845,7.251,7.251,0,0,1-5.494-1.919A7.066,7.066,0,0,1,386.9,114.5Z" transform="translate(69 64.627)"/><path class="c" d="M401.266,114.5v-3.241a6.554,6.554,0,0,1,2.149-4.86,7.381,7.381,0,0,1,10.249-.018,6.489,6.489,0,0,1,2.184,4.878V114.5a6.617,6.617,0,0,1-2.2,4.878,7.186,7.186,0,0,1-10.2.017A6.616,6.616,0,0,1,401.266,114.5Zm3.7-.011a3.682,3.682,0,0,0,1.056,2.572,3.377,3.377,0,0,0,5.054,0,3.65,3.65,0,0,0,1.074-2.572v-3.219a3.549,3.549,0,0,0-1.074-2.518,3.411,3.411,0,0,0-5.054,0,3.579,3.579,0,0,0-1.056,2.518Z" transform="translate(69 64.627)"/><path class="c" d="M418.735,119.989V105.725a1,1,0,0,1,.511-.863,2.3,2.3,0,0,1,1.286-.335,2.063,2.063,0,0,1,1.2.339,1.021,1.021,0,0,1,.493.873v1.567a5.561,5.561,0,0,1,1.814-2.118,4.464,4.464,0,0,1,2.659-.872h1.127a1.282,1.282,0,0,1,.986.481,1.69,1.69,0,0,1,.423,1.157,1.76,1.76,0,0,1-.423,1.175,1.264,1.264,0,0,1-.986.5H426.7a3.89,3.89,0,0,0-2.976,1.44,5.378,5.378,0,0,0-1.286,3.724v7.2a1.062,1.062,0,0,1-.563.843,2.307,2.307,0,0,1-1.338.387,2.062,2.062,0,0,1-1.286-.388A1.078,1.078,0,0,1,418.735,119.989Z" transform="translate(69 64.627)"/><path class="c" d="M430.006,114.5v-3.241a7.041,7.041,0,0,1,1.849-4.895,5.8,5.8,0,0,1,4.455-2.043,4.906,4.906,0,0,1,2.747.783,5.469,5.469,0,0,1,1.831,1.922V95.827a.994.994,0,0,1,.529-.862,2.458,2.458,0,0,1,1.338-.334,2.372,2.372,0,0,1,1.321.334,1,1,0,0,1,.511.861V119.99a1.074,1.074,0,0,1-.529.845,2.146,2.146,0,0,1-1.3.387,1.886,1.886,0,0,1-1.18-.392,1.094,1.094,0,0,1-.51-.856v-1.247a4.853,4.853,0,0,1-1.92,1.958,5.552,5.552,0,0,1-7.273-1.312A7.189,7.189,0,0,1,430.006,114.5Zm3.7-.011a3.682,3.682,0,0,0,1.056,2.572,3.3,3.3,0,0,0,2.5,1.137,3.558,3.558,0,0,0,2.5-1.067,2.879,2.879,0,0,0,1.127-1.837v-4.024a3.422,3.422,0,0,0-1.091-2.624,3.573,3.573,0,0,0-2.5-1.014,3.379,3.379,0,0,0-2.518,1.12,3.545,3.545,0,0,0-1.074,2.518Z" transform="translate(69 64.627)"/><path class="c" d="M447.474,114.5v-3.241a6.554,6.554,0,0,1,2.149-4.86,7.38,7.38,0,0,1,10.248-.018,6.489,6.489,0,0,1,2.184,4.878V114.5a6.616,6.616,0,0,1-2.2,4.878,7.186,7.186,0,0,1-10.2.017A6.616,6.616,0,0,1,447.474,114.5Zm3.7-.011a3.683,3.683,0,0,0,1.057,2.572,3.377,3.377,0,0,0,5.054,0,3.65,3.65,0,0,0,1.074-2.572v-3.219a3.549,3.549,0,0,0-1.074-2.518,3.411,3.411,0,0,0-5.054,0,3.58,3.58,0,0,0-1.057,2.518Z" transform="translate(69 64.627)"/><path class="c" d="M464.626,114.776v-3.768a6.762,6.762,0,0,1,1.726-4.808,6.606,6.606,0,0,1,5.072-1.849,7.494,7.494,0,0,1,3.539.757q1.426.759,1.427,1.533a1.162,1.162,0,0,1-.317.757.923.923,0,0,1-.7.369,1.379,1.379,0,0,1-.652-.308,6.351,6.351,0,0,0-1.25-.634,5.211,5.211,0,0,0-1.937-.325,4.626,4.626,0,0,0-3.434,1.191,4.521,4.521,0,0,0-1.18,3.327v3.748a4.571,4.571,0,0,0,1.18,3.363,4.677,4.677,0,0,0,3.469,1.191,5.557,5.557,0,0,0,2.026-.326,5.664,5.664,0,0,0,1.268-.652,1.337,1.337,0,0,1,.686-.326.954.954,0,0,1,.758.353,1.173,1.173,0,0,1,.3.775q0,.81-1.479,1.567a7.985,7.985,0,0,1-3.663.757,6.688,6.688,0,0,1-5.107-1.831A6.8,6.8,0,0,1,464.626,114.776Z" transform="translate(69 64.627)"/><path class="c" d="M478.538,114.776v-3.944a6.146,6.146,0,0,1,1.973-4.561,6.806,6.806,0,0,1,9.386-.086,6.022,6.022,0,0,1,1.954,4.583,4.5,4.5,0,0,1-.229,1.581,1.471,1.471,0,0,1-.739.843,3.5,3.5,0,0,1-.933.317,7.47,7.47,0,0,1-1.163.07h-7.959v1.3a4.115,4.115,0,0,0,1.5,3.328,5.813,5.813,0,0,0,3.857,1.251,5.72,5.72,0,0,0,2.1-.353,6.081,6.081,0,0,0,1.373-.7,1.448,1.448,0,0,1,.758-.352.871.871,0,0,1,.686.37,1.159,1.159,0,0,1,.3.722q0,.74-1.514,1.532a8.072,8.072,0,0,1-3.768.792,7.987,7.987,0,0,1-5.46-1.849A6.13,6.13,0,0,1,478.538,114.776Zm2.29-2.888h7.044a2.9,2.9,0,0,0,1.408-.227,1.076,1.076,0,0,0,.352-.963,4.36,4.36,0,0,0-1.25-3.08,4.143,4.143,0,0,0-3.152-1.33,4.292,4.292,0,0,0-3.117,1.26,4.067,4.067,0,0,0-1.285,3.01Z" transform="translate(69 64.627)"/><path class="c" d="M494.95,120.306v-14.9a.738.738,0,0,1,.317-.6,1.283,1.283,0,0,1,.81-.246,1.216,1.216,0,0,1,.775.249.748.748,0,0,1,.317.607v1.748a5.582,5.582,0,0,1,1.867-2,5.037,5.037,0,0,1,2.853-.82h1.232a.834.834,0,0,1,.635.323,1.147,1.147,0,0,1,0,1.5.836.836,0,0,1-.635.322h-1.232a4.433,4.433,0,0,0-3.241,1.423,5.041,5.041,0,0,0-1.408,3.707v8.678a.817.817,0,0,1-.335.632,1.241,1.241,0,0,1-.828.282,1.19,1.19,0,0,1-.792-.282A.82.82,0,0,1,494.95,120.306Z" transform="translate(69 64.627)"/><path class="c" d="M506.185,116.051V97.518a.716.716,0,0,1,.353-.6,1.322,1.322,0,0,1,.774-.247,1.386,1.386,0,0,1,.811.246.716.716,0,0,1,.352.6v7.048h4.543a.71.71,0,0,1,.581.287,1.129,1.129,0,0,1,0,1.363.713.713,0,0,1-.581.287h-4.543V116a3.207,3.207,0,0,0,.722,2.392,3.716,3.716,0,0,0,2.553.681h.986a1.013,1.013,0,0,1,.758.31,1.036,1.036,0,0,1,.3.746,1.1,1.1,0,0,1-.3.765.982.982,0,0,1-.758.328h-.986Q506.185,121.222,506.185,116.051Z" transform="translate(69 64.627)"/><path class="c" d="M515.378,114.776v-3.839a6.3,6.3,0,0,1,1.972-4.631,6.429,6.429,0,0,1,4.685-1.955,6.577,6.577,0,0,1,4.719,1.937,6.236,6.236,0,0,1,2.008,4.649v3.839a6.693,6.693,0,0,1-13.384,0Zm2.289-.01a4.524,4.524,0,0,0,1.286,3.17,4.062,4.062,0,0,0,3.082,1.384,4.155,4.155,0,0,0,3.134-1.384,4.49,4.49,0,0,0,1.3-3.17v-3.818a4.326,4.326,0,0,0-1.32-3.082,4.2,4.2,0,0,0-3.117-1.366,4.083,4.083,0,0,0-3.082,1.366,4.384,4.384,0,0,0-1.286,3.082Z" transform="translate(69 64.627)"/></g></svg>