<svg xmlns="http://www.w3.org/2000/svg" width="85.897" height="67" viewBox="0 0 85.897 67"><defs><style>.a,.g{fill:none;}.b{fill:#5a5a5c;}.c{fill:#f26723;}.d{fill:#f47821;}.e{fill:#f89422;}.f{fill:#f05025;}.g{stroke:#f15b24;stroke-linecap:round;stroke-linejoin:round;stroke-width:0.337px;}</style></defs><g transform="translate(-375.218 -672.614)"><rect class="a" width="85.897" height="67" transform="translate(375.218 672.614)"/><rect class="a" width="85.897" height="67" transform="translate(375.218 672.614)"/><path class="b" d="M315.038,660.5h-3.962l-.9,3.255c-.069.218-.137.318-.874.318-.253,0-.737-.021-1.175-.059l4.1-13.65c.046-.2.3-.278.715-.278a5.541,5.541,0,0,1,.874.06l4.123,13.589c.046.219-.07.338-.806.338-.277,0-.645,0-1.106-.04Zm-3.569-1.468h3.178l-.783-2.817a29.112,29.112,0,0,1-.807-3.809c-.138.952-.46,2.481-.8,3.809Z" transform="translate(69 64.627)"/><path class="b" d="M318.884,654.588a11.734,11.734,0,0,1,3.639-.675c2.417,0,3.247.734,3.247,2.658v7.142c0,.318-.045.318-1.933.318v-6.984c0-1.25-.231-1.727-1.383-1.727a4.479,4.479,0,0,0-1.7.357v8.035c0,.318-.046.318-1.865.318Z" transform="translate(69 64.627)"/><path class="b" d="M376.711,657.107a11.18,11.18,0,0,1-.253,2.579,34.126,34.126,0,0,1-4.813.319c.092,2.1.738,2.658,2.142,2.658a6.136,6.136,0,0,0,2.625-.615,3.487,3.487,0,0,1,.162,1.092c0,.614-1.452,1.091-3.179,1.091-2.141,0-3.685-.775-3.685-4.642,0-4.96,2.05-5.674,4.077-5.674,1.934,0,2.923,1.051,2.923,3.193m-5.042,1.587a14.657,14.657,0,0,0,3.109-.218,5.072,5.072,0,0,0,.115-1.191c-.023-1.428-.322-1.964-1.313-1.964-.944,0-1.774.694-1.911,3.372" transform="translate(69 64.627)"/><path class="b" d="M378.114,654.8a6.227,6.227,0,0,1,3.133-.892c1.175,0,1.612.3,1.612.833a2.392,2.392,0,0,1-.207.953,2.616,2.616,0,0,0-1.105-.238,2.651,2.651,0,0,0-1.521.457l-.021,7.8c0,.317-.024.317-1.89.317Z" transform="translate(69 64.627)"/><path class="b" d="M383.851,654.447a9.208,9.208,0,0,1,3.5-.537c1.98,0,2.855.636,2.855,2.421v1.052c0,2.281-.022,4.662-.138,6.17a7.142,7.142,0,0,1-3.2.673c-1.681.021-3.294-.3-3.294-3.015,0-2.758,1.519-3.254,3.064-3.254a4.779,4.779,0,0,1,1.681.258v-1.568c0-.933-.507-1.171-1.428-1.171a10.258,10.258,0,0,0-3.039.436A1.7,1.7,0,0,1,383.6,655a.63.63,0,0,1,.253-.555m3.384,4.721c-.922,0-1.7.277-1.7,2,0,1.449.6,1.707,1.5,1.707a2.126,2.126,0,0,0,1.221-.338c.07-.655.07-2.123.07-3.194a3.32,3.32,0,0,0-1.083-.179" transform="translate(69 64.627)"/><path class="c" d="M341.953,634.439a33.225,33.225,0,0,0-4.375,1.963,2.661,2.661,0,0,0-.941.924l-2.286,4.19c-.181.332-.034.509.326.394,0,0,.917-.3,1.808-.56,2.163-.641,6.161-1.591,6.161-1.591a1.775,1.775,0,0,0,1-.764l3.148-5.771c.181-.333.036-.509-.324-.39,0,0-2.241.727-4.519,1.605" transform="translate(69 64.627)"/><path class="c" d="M362.261,636.923a.416.416,0,0,0,.437-.394.411.411,0,0,0-.08-.267l-3.015-5.526a1.059,1.059,0,0,0-1.013-.5l-6.039,1.032a.479.479,0,0,0-.422.53.468.468,0,0,0,.076.21l2.72,4.986a1.138,1.138,0,0,0,1.016.54Z" transform="translate(69 64.627)"/><path class="d" d="M358.161,628.091l-.551-1.008-1.058-1.941-1.416-2.6a.832.832,0,0,0-.979-.37A42.509,42.509,0,0,0,344,626.54c-1.074.718-2.008,1.5-2.008,1.5a4.332,4.332,0,0,0-.86,1.047l-2.542,4.659c-.181.333-.05.474.3.314,0,0,.659-.308,1.4-.621a61.584,61.584,0,0,1,8.161-2.773l.166-.044c3.216-.837,9.2-1.812,9.2-1.812a.457.457,0,0,0,.351-.716" transform="translate(69 64.627)"/><path class="e" d="M343.832,624.871a50.419,50.419,0,0,1,4.81-2.517c1.709-.716,4.747-1.6,4.747-1.6a.532.532,0,0,0,.4-.64.511.511,0,0,0-.066-.16l-2.815-5.159c-.581-.943-1.479-.9-2.036.114l-.006.005-5.3,9.706c-.182.332-.064.448.262.253" transform="translate(69 64.627)"/><path class="f" d="M367.328,644.9l-3.247-5.954a1.039,1.039,0,0,0-.8-.576l-.24.016a122.668,122.668,0,0,0-26.059,4.4c-1.557.46-3.387,1.089-3.387,1.089a1.453,1.453,0,0,0-.983.83l-.1.179v.005c-.455.993.065,1.78,1.217,1.78l.057.006H366.11c1.152,0,1.672-.789,1.216-1.781" transform="translate(69 64.627)"/><path class="b" d="M327.452,650.18c0-.734.322-.734,1.865-.734v5.236a4.432,4.432,0,0,1,2.579-.773c1.982,0,2.4.953,2.4,2.619v7.182c0,.317-.093.317-1.935.317v-7.043c0-.873-.185-1.587-1.313-1.587a2.926,2.926,0,0,0-1.727.556v7.757c0,.317-.023.317-1.865.317Z" transform="translate(69 64.627)"/><path class="b" d="M335.879,654.447a9.208,9.208,0,0,1,3.5-.537c1.98,0,2.856.636,2.856,2.421v1.052c0,2.281-.024,4.662-.138,6.17a7.142,7.142,0,0,1-3.2.673c-1.681.021-3.294-.3-3.294-3.015,0-2.758,1.52-3.254,3.062-3.254a4.784,4.784,0,0,1,1.682.258v-1.568c0-.933-.507-1.171-1.428-1.171a10.265,10.265,0,0,0-3.04.436,1.7,1.7,0,0,1-.253-.912.632.632,0,0,1,.253-.555m3.386,4.721c-.921,0-1.705.277-1.705,2,0,1.449.6,1.707,1.5,1.707a2.131,2.131,0,0,0,1.22-.338c.069-.655.069-2.123.069-3.194a3.318,3.318,0,0,0-1.082-.179" transform="translate(69 64.627)"/><path class="b" d="M343.894,654.588a11.734,11.734,0,0,1,3.639-.675c2.418,0,3.247.734,3.247,2.658v7.142c0,.318-.046.318-1.934.318v-6.984c0-1.25-.23-1.727-1.382-1.727a4.479,4.479,0,0,0-1.7.357v8.035c0,.318-.046.318-1.865.318Z" transform="translate(69 64.627)"/><path class="b" d="M368.144,663.515a8.53,8.53,0,0,1-3.431.715c-2.742,0-3.456-1.071-3.456-3.293V654.45c0-.338,0-.338,1.935-.338v6.965c0,1.288.3,1.745,1.543,1.745a3.318,3.318,0,0,0,1.543-.356v-8.015c0-.338.023-.338,1.866-.338Z" transform="translate(69 64.627)"/><path class="b" d="M354.017,667.405a7.3,7.3,0,0,1-.924-.017,1.6,1.6,0,0,0,.04.938.716.716,0,0,0,.433.478,2.531,2.531,0,0,0,.451.057c.1.005-.084,0,.031,0a5.722,5.722,0,0,0,3.99-1.411,4.634,4.634,0,0,0,.871-.993,5.033,5.033,0,0,0,.786-2.823V654.4l-.114-.032a11.7,11.7,0,0,0-3.076-.391,4.176,4.176,0,0,0-3.3,1.23,5.591,5.591,0,0,0-1.051,3.639v.17a9.139,9.139,0,0,0,.169,1.837,3.813,3.813,0,0,0,1.66,2.68,4.066,4.066,0,0,0,2.132.524,4.632,4.632,0,0,0,1.647-.3v.069a3.26,3.26,0,0,1-.956,2.437c-.052.05-.1.1-.156.149a3.243,3.243,0,0,1-1.985.933c-.384.044-.505.058-.648.061m2.1-4.813a1.99,1.99,0,0,1-.428-.047c-.917-.2-1.446-1.1-1.578-2.677-.022-.265-.034-.547-.034-.849,0-.19.007-.369.017-.544a4.021,4.021,0,0,1,.613-2.181,2.088,2.088,0,0,1,1.8-.809,7.463,7.463,0,0,1,1.258.107v6.483c-.054.043-.111.083-.168.122a2.652,2.652,0,0,1-1.479.4" transform="translate(69 64.627)"/><path class="g" d="M387.7,664.242" transform="translate(69 64.627)"/></g></svg>