<svg xmlns="http://www.w3.org/2000/svg" width="85.897" height="67" viewBox="0 0 85.897 67"><defs><style>.a{fill:none;}.b{fill:#009ddf;}.b,.c,.d{fill-rule:evenodd;}.c{fill:#fff;}.d{fill:#1a171b;}</style></defs><g transform="translate(-972.465 -1030.312)"><rect class="a" width="85.897" height="67" transform="translate(972.465 1030.312)"/><g transform="translate(69 64.627)"><path class="b" d="M961.392,970.937H931.337a1.638,1.638,0,0,0-1.634,1.633v30.057a1.639,1.639,0,0,0,1.634,1.633h30.055a1.639,1.639,0,0,0,1.635-1.633V972.57a1.638,1.638,0,0,0-1.635-1.633"/><path class="c" d="M960.8,990.8c-1.206-1.527-4.156-1.85-5.753-1.85a52.353,52.353,0,0,0-18.876,3.5,36.285,36.285,0,0,0-.194-5.185,56.985,56.985,0,0,1,17.5-1.893c4.835.424,6.658,3.119,7.319,5.431"/><path class="c" d="M958.63,986.387c-1.347-1.267-2.377-2.18-6.466-2.771s-12.74.3-16.568,1.266a36.706,36.706,0,0,0-1.107-4.473,46.863,46.863,0,0,1,15.942-.038c5.407.926,7.129,3.955,8.2,6.016"/><path class="c" d="M931.556,973.78c13.926-.361,21.749,5.736,23.309,7.415a15.445,15.445,0,0,0-6.226-2.527,45.735,45.735,0,0,0-14.888-.368,47.3,47.3,0,0,0-2.195-4.52"/><path class="c" d="M958.63,999.625c2.241-4.63,1.716-5.441-2.685-4.9A67.9,67.9,0,0,0,933.978,1002a19.013,19.013,0,0,0,2-6.7,53.484,53.484,0,0,1,20.476-4.494c7.609-.149,4.755,5.674,2.18,8.817"/></g><path class="d" d="M961.508,1023.59c0,1.467.771,2.5,2.04,2.5s2.016-1.088,2.016-2.543c0-1.344-.721-2.5-2.029-2.5-1.282,0-2.027,1.089-2.027,2.545m6.059-.1a3.774,3.774,0,0,1-4.119,3.941,3.68,3.68,0,0,1-3.945-3.809,3.827,3.827,0,0,1,4.082-3.922A3.683,3.683,0,0,1,967.567,1023.491Zm-20.539-3.667v4.31c0,1.288.547,1.944,1.517,1.944,1,0,1.544-.622,1.544-1.944v-4.31h1.892v4.2c0,2.31-1.307,3.409-3.5,3.409-2.116,0-3.361-1.043-3.361-3.432v-4.176Zm-2.75,7.142a10.386,10.386,0,0,1-2.8.423,5.037,5.037,0,0,1-3.41-1.011,3.419,3.419,0,0,1-1.182-2.721c.013-2.49,2.04-3.912,4.79-3.912a6.344,6.344,0,0,1,2.328.368l-.4,1.354a5.177,5.177,0,0,0-1.955-.322c-1.579,0-2.774.8-2.774,2.423a2.386,2.386,0,0,0,2.638,2.454,2.857,2.857,0,0,0,.934-.11v-1.567l.005-1.32h1.824Zm-8.039-2.821h-3.086v1.777H936.6v1.389h-5.351v-7.487h5.177v1.389h-3.272v1.555h3.086Zm-11.026,1.423a5.32,5.32,0,0,0,2.1.465c.871,0,1.331-.322,1.331-.81,0-.467-.4-.734-1.406-1.056-1.393-.432-2.3-1.121-2.3-2.211,0-1.277,1.194-2.255,3.173-2.255a5.674,5.674,0,0,1,2.141.378l-.423,1.367a4.388,4.388,0,0,0-1.756-.356c-.82,0-1.219.333-1.219.722,0,.478.473.689,1.556,1.056,1.481.488,2.178,1.176,2.178,2.232,0,1.255-1.083,2.332-3.385,2.332a6.028,6.028,0,0,1-2.377-.466Zm29.662-2.424h.745c.946,0,1.5-.422,1.5-1.078,0-.687-.522-1.032-1.392-1.042a5.5,5.5,0,0,0-.857.054ZM953,1019.925a18.611,18.611,0,0,1,2.525-.155,4.688,4.688,0,0,1,2.709.587,2.269,2.269,0,0,1,.771,1.794,1.933,1.933,0,0,1-1.337,1.869v.034c.358.5,2.5,3.249,2.5,3.249h-2.093l-2.248-2.939h-.948v2.939H953Z" transform="translate(69 64.627)"/><path class="d" d="M963.189,1016.409c-1.557,0-2.563-1.226-2.563-3.123s1.023-3.177,2.549-3.177c1.5,0,2.55,1.283,2.55,3.123,0,1.93-.994,3.177-2.536,3.177m.046-7.774a4.585,4.585,0,0,0-4.887,4.691,4.394,4.394,0,0,0,4.722,4.557c2.994,0,4.93-1.852,4.93-4.719A4.4,4.4,0,0,0,963.235,1008.635Zm-4.61.149v1.568h-2.787v7.381h-2.155v-7.381h-2.742v-1.568Zm-12.021,4.042h-.99v-2.664l.067-.012a6.918,6.918,0,0,1,1.061-.069c1.145.015,1.776.5,1.776,1.352S947.786,1012.826,946.6,1012.826Zm2.426,1.076-.016-.022v-.124l.055-.019a2.266,2.266,0,0,0,1.574-2.2,2.675,2.675,0,0,0-.9-2.118,5.56,5.56,0,0,0-3.256-.7,22.908,22.908,0,0,0-2.994.181v8.836h2.125v-3.582h1.278l2.739,3.582h2.342C951.489,1017.11,949.413,1014.437,949.03,1013.9Zm-11.271,2.507c-1.559,0-2.565-1.226-2.565-3.123s1.023-3.177,2.551-3.177c1.5,0,2.549,1.283,2.549,3.123C940.294,1015.162,939.3,1016.409,937.759,1016.409Zm.044-7.774a4.585,4.585,0,0,0-4.886,4.691,4.4,4.4,0,0,0,4.721,4.557c3,0,4.931-1.852,4.931-4.719A4.4,4.4,0,0,0,937.8,1008.635Zm-9.481,4.462a3.986,3.986,0,0,1-.788-.055l-.064-.015v-2.82l.06-.016a4.456,4.456,0,0,1,.975-.082c1.179,0,1.883.531,1.883,1.42C930.388,1012.5,929.6,1013.1,928.322,1013.1Zm3.133-3.665a5.264,5.264,0,0,0-3.072-.716,21.271,21.271,0,0,0-3.039.181v8.836h2.126v-3.269l.091.013a6.669,6.669,0,0,0,.775.039,5.038,5.038,0,0,0,3.267-.942,2.686,2.686,0,0,0,.909-2.1A2.463,2.463,0,0,0,931.455,1009.432Z" transform="translate(69 64.627)"/></g></svg>