<svg xmlns="http://www.w3.org/2000/svg" xmlns:xlink="http://www.w3.org/1999/xlink" width="85.897" height="67" viewBox="0 0 85.897 67"><defs><style>.a{fill:none;}.b{fill:#d61920;}.c{clip-path:url(#a);}.d{fill:#fff;}</style><clipPath id="a"><rect class="a" width="85.897" height="28.29"/></clipPath></defs><g transform="translate(-673.807 -512.138)"><rect class="a" width="85.897" height="67" transform="translate(673.807 512.138)"/><g transform="translate(-2.701 -2.183)"><rect class="b" width="85.897" height="28.29" transform="translate(676.508 533.676)"/><g transform="translate(676.508 533.676)"><g class="c"><path class="d" d="M689.771,553.992c-3.607,0-6.532-3.24-6.532-7.238s2.925-7.238,6.532-7.238,6.533,3.241,6.533,7.238-2.925,7.238-6.533,7.238" transform="translate(-676.056 -532.61)"/><path class="d" d="M703.38,546.71a2.957,2.957,0,0,0,2.731-3.056,2.926,2.926,0,0,0-3.191-2.884h-3.8v11.51h1.506v-5.542H701.8l3.191,5.542h1.658Zm-2.756-.764v-4.383h1.761a2.092,2.092,0,0,1,2.169,2.149,2.271,2.271,0,0,1-2.476,2.235Z" transform="translate(-674.99 -532.381)"/></g></g><path class="d" d="M713.349,550.5h-5.262V540.77h5.143v.67H709.5v3.707h3.444v.669H709.5v4.018h3.851Z" transform="translate(2.268 2.183)"/><path class="d" d="M722.892,550.5h-.622l-5.788-7.223V550.5h-.813V540.77h.622l5.788,7.223V540.77h.813Z" transform="translate(2.888 2.183)"/><path class="d" d="M732.913,550.5h-.622l-5.788-7.223V550.5h-.813V540.77h.622l5.788,7.223V540.77h.813Z" transform="translate(3.627 2.183)"/><path class="d" d="M740.878,550.5h-5.262V540.77h5.142v.67h-3.731v3.707h3.444v.669h-3.444v4.018h3.851Z" transform="translate(4.245 2.183)"/><g transform="translate(676.508 533.676)"><g class="c"><path class="d" d="M747.364,546.71a2.957,2.957,0,0,0,2.732-3.056,2.926,2.926,0,0,0-3.191-2.884h-3.8v11.51h1.506v-5.542h1.174l3.191,5.542h1.659Zm-2.756-.764v-4.383h1.761a2.093,2.093,0,0,1,2.17,2.149,2.272,2.272,0,0,1-2.477,2.235Z" transform="translate(-672.038 -532.381)"/><path class="b" d="M691.495,542.288a6.239,6.239,0,0,0-1.673,2.062,4.144,4.144,0,0,0,.144-2.079c-.157-.359-.574-.564-1.367-.407a5.227,5.227,0,0,0-2.774,2.344.406.406,0,0,0-.011.38c.033.066.157.225.275.07,0,0,.44-.512.7-.783.355-.343.494-.376.554-.371.172.013.208.175.138.414-.095.32-2.05,6.2-2.132,6.447a.233.233,0,0,0,.033.24.192.192,0,0,0,.16.074h2.021a.205.205,0,0,0,.2-.135c.606-1.671,1.14-2.99,1.6-4.024a14.77,14.77,0,0,1,1.752-2.885c.215-.25.559-.27.665-.059.055.494.347,1.116.9,1.181.474.057,1.106-.33,1.347-1.212.307-1.132-.659-2.624-2.531-1.257" transform="translate(-675.916 -532.204)"/></g></g></g></g></svg>