<svg xmlns="http://www.w3.org/2000/svg" width="85.897" height="67" viewBox="0 0 85.897 67"><defs><style>.a{fill:none;}.b{fill:#472a6f;}.c{fill:#e95a0c;}</style></defs><g transform="translate(-1022.912 -1281.739)"><rect class="a" width="85.897" height="67" transform="translate(1022.912 1281.739)"/><rect class="b" width="68.696" height="42.935" rx="4.294" transform="translate(1031.513 1293.771)"/><path class="c" d="M1058.287,1312.849v-7.43a.2.2,0,0,0-.2-.2h-2.1a.765.765,0,0,0-.767.761v6.5c0,2.124-1.129,3.392-3.022,3.392s-3.029-1.268-3.029-3.392v-6.5a.765.765,0,0,0-.767-.761h-2.1a.2.2,0,0,0-.2.2v7.43a5.851,5.851,0,0,0,1.671,4.31,6.169,6.169,0,0,0,4.421,1.631h0a6.159,6.159,0,0,0,4.424-1.631A5.86,5.86,0,0,0,1058.287,1312.849Z"/><path class="c" d="M1060.854,1318.477h9.259a1.33,1.33,0,0,0,1.334-1.323v-1.328a.2.2,0,0,0-.2-.2h-5.833a.024.024,0,0,1-.023-.014.025.025,0,0,1,0-.027l6.009-9.665a.2.2,0,0,0,.03-.1v-.4a.2.2,0,0,0-.2-.2h-9.893a.2.2,0,0,0-.2.2v2.422a.2.2,0,0,0,.2.2h5.388a.025.025,0,0,1,.023.014.024.024,0,0,1,0,.027l-6.063,9.758a.191.191,0,0,0-.03.1v.337A.2.2,0,0,0,1060.854,1318.477Z"/><path class="c" d="M1084.348,1307.017a6.411,6.411,0,0,0-4.7-1.8,6.576,6.576,0,0,0-4.919,1.966,6.813,6.813,0,0,0-1.879,4.924,7.112,7.112,0,0,0,1.7,4.77,7.03,7.03,0,0,0,5.434,2.168,10.041,10.041,0,0,0,5.709-1.826.2.2,0,0,0,.054-.257l-1.1-1.929a.2.2,0,0,0-.292-.062,7.877,7.877,0,0,1-4.273,1.343,3.774,3.774,0,0,1-4.039-2.932s0-.008,0-.017a.033.033,0,0,1,.024-.012h9.619a.427.427,0,0,0,.424-.37,8.571,8.571,0,0,0,.07-1.09A6.6,6.6,0,0,0,1084.348,1307.017Zm-1.261,3.773a.019.019,0,0,1-.006.016.034.034,0,0,1-.023.011h-6.989a.03.03,0,0,1-.024-.012c-.006-.009-.005-.015,0-.017a3.629,3.629,0,0,1,3.608-2.908A3.351,3.351,0,0,1,1083.087,1310.79Z"/><path class="c" d="M1075.829,1322.3a.2.2,0,0,0-.279-.045c-9.643,6.883-18.359.316-18.725.033a.2.2,0,0,0-.28.034l-1.478,1.876a.2.2,0,0,0,.033.278,20.081,20.081,0,0,0,11.306,3.649,18.316,18.316,0,0,0,10.783-3.617c.155-.117.046-.267-.019-.357Z"/></g></svg>