<svg xmlns="http://www.w3.org/2000/svg" width="85.897" height="67" viewBox="0 0 85.897 67"><defs><style>.a{fill:none;}.b{fill:#fc5300;}</style></defs><g transform="translate(-1207.809 -1030.312)"><rect class="a" width="85.897" height="67" transform="translate(1207.809 1030.312)"/><g transform="translate(69 64.627)"><path class="b" d="M1211.495,992.73a9.913,9.913,0,0,0-14.02,0l0,0-.2.2h0l-10.211,10.209a4.807,4.807,0,1,1,0-6.8l3.612-3.609a9.916,9.916,0,1,0,0,14.023h0l.362-.362h0l3.038-3.038,3.037,3.037h0l.362.362a9.916,9.916,0,0,0,14.023-14.022Zm-3.613,10.41a4.807,4.807,0,0,1-6.8,0l0,0-3.4-3.4,3.4-3.4a4.808,4.808,0,0,1,6.8,6.8Z"/><path class="b" d="M1168.27,982.715a2.964,2.964,0,1,0,2.964,2.964,2.964,2.964,0,0,0-2.964-2.964Z"/><rect class="b" width="5.109" height="19.053" transform="translate(1165.716 990.214)"/><path class="b" d="M1149.117,998.879v10.387h5.109V998.879a3.633,3.633,0,0,1,3.633-3.633h4.864v-5.032h-4.94a8.665,8.665,0,0,0-8.666,8.664Z"/></g></g></svg>