<svg xmlns="http://www.w3.org/2000/svg" xmlns:xlink="http://www.w3.org/1999/xlink" width="85.897" height="67" viewBox="0 0 85.897 67"><defs><style>.a{fill:none;}.b{clip-path:url(#a);}.c{fill:url(#b);}.d{fill:#4d4d4f;}</style><clipPath id="a"><path class="a" d="M143.727,14.614l7.849,7.85,7.845-7.85-7.845-7.849Zm15.694,0,7.852,7.85h-15.7v15.7h15.7v-15.7l7.849-7.85-7.849-7.849Z" transform="translate(-143.727 -6.765)"/></clipPath><linearGradient id="b" x1="0.5" x2="0.5" y2="1" gradientUnits="objectBoundingBox"><stop offset="0" stop-color="#fdb613"/><stop offset="1" stop-color="#f15a22"/></linearGradient></defs><g transform="translate(-730 -645)"><g transform="translate(618 645)"><rect class="a" width="85.897" height="67" transform="translate(112)"/><g transform="translate(116.295 5.811)"><g transform="translate(22.958)"><g class="b"><rect class="c" width="44.667" height="44.667" transform="translate(16.169 -15.491) rotate(45)"/></g></g><path class="d" d="M160.9,61.823a2.751,2.751,0,0,1-2.064.971c-2.157,0-2.305-2.253-2.305-3.368,0-3.28,1.9-3.268,2.344-3.268a2.729,2.729,0,0,1,1.487.371.949.949,0,0,1,.539.793Zm.135-6.566a3.571,3.571,0,0,0-2.68-.943s-4.05-.307-4.05,5.013,3.777,5.331,4.249,5.331A2.935,2.935,0,0,0,160.9,63.9a3.593,3.593,0,0,1-.42,2.149,1.865,1.865,0,0,1-.8.688,3.459,3.459,0,0,1-1.447.252,3.651,3.651,0,0,1-2.8-1.229s-.868.85-.868,1.428c0,.885,1.5,1.665,3.669,1.665,2.5,0,3.417-.973,3.786-1.441s.984-1.408.984-3.913V54.519s-1.522-.317-1.97.738" transform="translate(-122.261 -13.47)"/><path class="d" d="M171.321,62.792c-1.8,0-2.416-1.48-2.416-3.307s.619-3.307,2.416-3.307,2.416,1.481,2.416,3.307-.619,3.307-2.416,3.307m0-8.48c-3.022,0-4.61,2.317-4.61,5.173s1.588,5.171,4.61,5.171,4.61-2.315,4.61-5.171-1.59-5.173-4.61-5.173" transform="translate(-124.011 -13.47)"/><path class="d" d="M121.171,62.791a2.754,2.754,0,0,1-2.065-.971v-4.5a.949.949,0,0,1,.539-.791,2.72,2.72,0,0,1,1.484-.371c.446,0,2.347-.012,2.347,3.268,0,1.115-.15,3.367-2.305,3.367m.48-8.48a3.582,3.582,0,0,0-2.682.943c-.446-1.055-1.97-.738-1.97-.738V68.686h2.106V63.892a2.93,2.93,0,0,0,2.346.764c.473,0,4.249,0,4.249-5.331s-4.05-5.013-4.05-5.013" transform="translate(-117 -13.47)"/><path class="d" d="M137.939,64.216c1.606,0,2.706-.779,2.706-1.418a2.41,2.41,0,0,0-.795-1.446,2.268,2.268,0,0,1-1.651,1c-.473,0-1.1-.15-1.1-1.443v-4.97l1.846,0c1.185,0,1.41-.95,1.26-1.844H137.1V52.67c0-1.352-1.086-1.61-2.106-1.438v9.557c0,1.051,0,3.426,2.948,3.426" transform="translate(-119.537 -13.029)"/><path class="d" d="M148.781,61.45c-.051,1.129-3.909,2.268-3.909-.02,0-2.1,3.909-1.824,3.909-1.824Zm1.887-5c-.121-.472-.553-2.135-3.59-2.135a5.867,5.867,0,0,0-3.306.83.817.817,0,0,0-.4.653,1.267,1.267,0,0,0,.123.551,2,2,0,0,0,.535.691,6.112,6.112,0,0,1,2.85-.862,2.088,2.088,0,0,1,1.507.406,2.174,2.174,0,0,1,.379,1.323l-.221,0s-5.773-.32-5.773,3.627a3.2,3.2,0,0,0,.3,1.475,2.875,2.875,0,0,0,2.9,1.532,3.834,3.834,0,0,0,2.928-1.021c.238.695.746,1.142,1.944.916v-6.41a6.382,6.382,0,0,0-.178-1.573" transform="translate(-120.634 -13.471)"/><path class="d" d="M193.156,61.45c-.051,1.129-3.909,2.268-3.909-.02,0-2.1,3.909-1.824,3.909-1.824Zm1.889-5c-.123-.472-.555-2.135-3.592-2.135a5.86,5.86,0,0,0-3.305.83.81.81,0,0,0-.4.653,1.261,1.261,0,0,0,.121.551,2,2,0,0,0,.535.691,6.113,6.113,0,0,1,2.851-.862,2.087,2.087,0,0,1,1.506.406,2.168,2.168,0,0,1,.379,1.323l-.221,0s-5.774-.32-5.774,3.627a3.2,3.2,0,0,0,.3,1.475,2.875,2.875,0,0,0,2.9,1.532,3.834,3.834,0,0,0,2.928-1.021c.239.695.746,1.142,1.944.916v-6.41a6.471,6.471,0,0,0-.176-1.573" transform="translate(-126.892 -13.471)"/><path class="d" d="M205.822,61.47a2.678,2.678,0,0,1-.326,1.389,3.967,3.967,0,0,1-3.542,1.778,4.429,4.429,0,0,1-3.054-.854.819.819,0,0,1-.256-.569,3.751,3.751,0,0,1,.655-1.489,4.2,4.2,0,0,0,2.714,1.127c1.7,0,1.725-1,1.725-1.242a1.07,1.07,0,0,0-.149-.581,1.632,1.632,0,0,0-1.043-.662,7.618,7.618,0,0,1-2.872-1.045,3.007,3.007,0,0,1-.715-.856,2.686,2.686,0,0,1-.273-1.267,2.589,2.589,0,0,1,1.129-2.181,4.366,4.366,0,0,1,2.479-.707,5.288,5.288,0,0,1,2.506.569c.291.162.782.463.782.955a1.9,1.9,0,0,1-.707,1.294,3.887,3.887,0,0,0-2.542-1.032c-.161,0-1.582-.006-1.582,1l.115.429.357.322a2.725,2.725,0,0,0,.588.25c.234.072.494.143.77.207a10.19,10.19,0,0,1,1.185.359,2.745,2.745,0,0,1,2.056,2.8" transform="translate(-128.514 -13.47)"/><path class="d" d="M146.126,52.372l1.806-2.366a1.643,1.643,0,0,1,1.221-.779,2.629,2.629,0,0,1,1.434.66l-2.168,2.342a1.594,1.594,0,0,1-1.171.625,2.026,2.026,0,0,1-1.123-.483" transform="translate(-121.108 -12.753)"/><path class="d" d="M184.755,56.965a2.27,2.27,0,0,0-1.442-.607c-.793,0-1.441.265-1.441,1.343v6.656h-2.106V57.7a3.127,3.127,0,0,1,3.368-3.389,3.494,3.494,0,0,1,2.008.6,1.042,1.042,0,0,1,.082,1.213,6.645,6.645,0,0,1-.469.838" transform="translate(-125.851 -13.47)"/><g transform="translate(10.486 36.833)"><path class="d" d="M130.49,49.645a1.313,1.313,0,1,0,1.283,1.313,1.3,1.3,0,0,0-1.283-1.313" transform="translate(-129.207 -49.645)"/><path class="d" d="M129.558,54.467v8.539c0,1.352,1.085,1.61,2.1,1.438V55.905c0-1.35-1.084-1.61-2.1-1.438" transform="translate(-129.257 -50.318)"/></g></g></g></g></svg>