<svg xmlns="http://www.w3.org/2000/svg" width="85.897" height="67" viewBox="0 0 85.897 67"><defs><style>.a{fill:none;}</style></defs><g transform="translate(-744.572 -493.765)"><rect class="a" width="85.897" height="67" transform="translate(744.572 493.765)"/><path d="M698.463,473.573a1.633,1.633,0,0,0-1.722-1.533h-2.659v5.5h.856V475.1h.776a.886.886,0,0,1,.717.365l1.354,2.077h.985l-1.623-2.478A1.6,1.6,0,0,0,698.463,473.573Zm-3.525.758v-1.524h1.822a.767.767,0,0,1,.154,1.526.778.778,0,0,1-.174,0Z" transform="translate(69 64.627)"/><rect width="0.856" height="5.5" transform="translate(769.088 536.667)"/><path d="M704.8,472.042l-2.541,5.5h.936l.56-1.221h2.531l.554,1.225h.936l-2.543-5.5Zm-.708,3.51.924-2.023.922,2.022Z" transform="translate(69 64.627)"/><path d="M711.094,472.806a2.181,2.181,0,0,1,1.494.678l.6-.543a3.529,3.529,0,0,0-.985-.677,3.024,3.024,0,0,0-1.106-.223,2.977,2.977,0,0,0-1.115.214,2.742,2.742,0,0,0,0,5.064,2.9,2.9,0,0,0,1.115.223,2.856,2.856,0,0,0,1.106-.223,3.559,3.559,0,0,0,.985-.686l-.617-.535a2.134,2.134,0,0,1-1.474.677,1.984,1.984,0,0,1,0-3.967Z" transform="translate(69 64.627)"/><path d="M718.156,474.271h-2.8V472.04H714.5v5.5h.857v-2.51h2.8v2.51h.856v-5.5h-.856Z" transform="translate(69 64.627)"/><path d="M724.1,475.659a1.444,1.444,0,0,1-2.8,0V472.04h-.851v3.619a1.709,1.709,0,0,0,.179.749,2.4,2.4,0,0,0,2.081,1.132,2.329,2.329,0,0,0,2.071-1.132,1.585,1.585,0,0,0,.179-.749V472.04H724.1Z" transform="translate(69 64.627)"/><path d="M726.392,477.54h4.143v-.766h-3.286v-1.745H730.3v-.758h-3.047v-1.465h3.286v-.766h-4.143Z" transform="translate(69 64.627)"/><path d="M732.826,476.007V472.04h-.857v3.967a1.628,1.628,0,0,0,1.7,1.533h2.44v-.766h-2.44A.805.805,0,0,1,732.826,476.007Z" transform="translate(69 64.627)"/><path d="M739.757,472.04a2.751,2.751,0,0,0-.149,5.5h.149a2.751,2.751,0,0,0,.148-5.5C739.856,472.039,739.806,472.039,739.757,472.04Zm0,4.733a1.984,1.984,0,1,1,1.962-2.006v.018A1.977,1.977,0,0,1,739.757,476.773Z" transform="translate(69 64.627)"/><g transform="translate(69 64.627)"><path d="M721.254,454.4h-6.716v-6.55h-3.491v16.284h3.491v-6.6h6.716v6.6h3.493V447.852h-3.493Z"/><path d="M705.717,459.257A5.454,5.454,0,0,1,702,460.973a4.978,4.978,0,0,1,0-9.956,5.537,5.537,0,0,1,3.778,1.721l.38.369,2.476-2.236-.411-.376a10.273,10.273,0,0,0-2.924-1.985,9.089,9.089,0,0,0-3.3-.658,8.915,8.915,0,0,0-3.338.637,8.094,8.094,0,0,0-2.675,1.794,7.949,7.949,0,0,0-.161,11.24c.05.051.1.1.151.151a8.285,8.285,0,0,0,2.69,1.806,8.668,8.668,0,0,0,6.653-.007,10.625,10.625,0,0,0,2.908-2.005l.41-.386-2.55-2.192Z"/><path d="M731.574,459.369V447.852h-3.491v11.517a5.064,5.064,0,0,0,5.306,4.77h7.364v-3.166h-7.364a1.7,1.7,0,0,1-1.814-1.578Z"/><path d="M691.132,452.623c0-2.631-2.405-4.771-5.362-4.771h-7.976v16.284h3.491v-6.771h1.62a1.9,1.9,0,0,1,1.536.768l3.944,6h4.051l-4.683-7.1A4.849,4.849,0,0,0,691.132,452.623Zm-5.362,1.58h-4.485v-3.185h4.54a1.7,1.7,0,0,1,1.812,1.579l0,.021a1.725,1.725,0,0,1-1.853,1.586h-.016Z"/><path d="M750.149,447.852a8.291,8.291,0,0,0-8.422,8.131,8.427,8.427,0,1,0,8.717-8.126C750.346,447.854,750.247,447.852,750.149,447.852Zm0,13.122a4.979,4.979,0,1,1,4.928-5.029v.038a4.981,4.981,0,0,1-4.929,4.991Z"/></g></g></svg>