<svg xmlns="http://www.w3.org/2000/svg" xmlns:xlink="http://www.w3.org/1999/xlink" width="85.897" height="67" viewBox="0 0 85.897 67"><defs><style>.a{fill:none;}.b{fill:#0a4374;}.c{fill:url(#a);}</style><linearGradient id="a" x1="0.731" y1="0.292" x2="0" y2="1" gradientUnits="objectBoundingBox"><stop offset="0" stop-color="#39baec"/><stop offset="1" stop-color="#8fc03a"/></linearGradient></defs><g transform="translate(-972 -1172)"><g transform="translate(-0.465 53.061)"><rect class="a" width="85.897" height="67" transform="translate(972.465 1118.939)"/></g><g transform="translate(876 1118.955)"><path class="b" d="M194.415,128.116a16.4,16.4,0,0,0-3.571,1.811l-.132.088-.243-1.638h-2.8v13.929h3.339V133.24l.047-.029a27.879,27.879,0,0,1,3.689-2.037l-.327-3.058Z" transform="translate(-73.156 -46.079)"/><path class="b" d="M268.328,83.839V87.63h3.338V83.371l-3.338.468Z" transform="translate(-144.534 -6.483)"/><path class="b" d="M268.328,130.381V144.31h3.338V130.381Z" transform="translate(-144.534 -48.084)"/><path class="b" d="M108.339,169.394v5.624a1.219,1.219,0,0,0,1.377,1.348,6.738,6.738,0,0,0,1.687-.263l.377,2.508a9.878,9.878,0,0,1-2.993.514c-2.549,0-3.788-1.191-3.788-3.642v-6.088Z" transform="translate(0 -82.608)"/><path class="c" d="M105,103.04h7.328l-.465-3.338h-3.524V95.713L105,96.178v6.862Z" transform="translate(0 -17.405)"/><path class="b" d="M325.163,139.524c-2.049,0-2.741-.619-2.741-2.451v-3.917c0-1.833.692-2.451,2.741-2.451a13.156,13.156,0,0,1,2.848.352l.406-2.706a12.179,12.179,0,0,0-3.341-.491c-4.312,0-5.993,1.493-5.993,5.325v3.859c0,3.832,1.68,5.325,5.993,5.325a11.649,11.649,0,0,0,3.341-.49l-.406-2.708a12.057,12.057,0,0,1-2.848.353Z" transform="translate(-189.449 -45.853)"/><path class="b" d="M539.217,128.116a16.4,16.4,0,0,0-3.571,1.811l-.132.088-.243-1.638h-2.8v13.929h3.339V133.24l.047-.029a27.876,27.876,0,0,1,3.689-2.037l-.327-3.058Z" transform="translate(-378.283 -46.079)"/><path class="b" d="M614.529,92.367l-.032.03a5.14,5.14,0,0,1-3.231,1.3c-1.274,0-1.842-.586-1.842-1.9V86.81c0-1.374.577-1.987,1.871-1.987a16.043,16.043,0,0,1,3.155.38l.079.017v7.147Zm0-15.857v5.927l-.122-.026a19.338,19.338,0,0,0-3.751-.4c-3.033,0-4.571,1.645-4.571,4.89v4.817c0,3.142,1.47,4.8,4.252,4.8a7.316,7.316,0,0,0,4.409-1.461l.116-.083.367,1.254h2.638V76.045l-3.339.465Z" transform="translate(-443.427)"/><path class="b" d="M422.17,138.989l-.051.029a6.8,6.8,0,0,1-2.949.738c-1.1,0-1.522-.427-1.522-1.522a2.121,2.121,0,0,1,.675-1.829,6.344,6.344,0,0,1,2.616-.78c.841,0,1.232.928,1.232,1.768v1.6Zm-2.306-11.129a18.537,18.537,0,0,0-4.732.638l.4,2.507a19.867,19.867,0,0,1,3.834-.416c2.2,0,2.8.362,2.8,2.1v.708a14.39,14.39,0,0,0-5.6,1.122,3.65,3.65,0,0,0-2.149,3.74c0,1.534.466,4.106,3.585,4.106a8.408,8.408,0,0,0,4.382-1.231l.116-.076.277,1.017h2.724v-9.213c0-3.7-1.477-5.006-5.644-5.006Z" transform="translate(-273.821 -45.853)"/></g></g></svg>