<svg xmlns="http://www.w3.org/2000/svg" width="85.897" height="67" viewBox="0 0 85.897 67"><defs><style>.a{fill:none;}.b{fill:#414141;}.c{fill:#00c5ff;}</style></defs><g transform="translate(-425.675 -1281.739)"><rect class="a" width="85.897" height="67" transform="translate(425.675 1281.739)"/><path class="b" d="M468.354,1316.092h-6.677v14.031h3.4v-4.016h3.252a4.99,4.99,0,0,0,5.343-5.1c0-2.569-1.732-4.911-5.322-4.911m-.392,6.9h-2.881v-3.969h2.881c1.361.021,2.29.785,2.29,1.981a2.04,2.04,0,0,1-2.29,1.988"/><path class="b" d="M500.557,1324.627l-6.379-8.607h-3.422v14.1h3.422V1321.5l6.379,8.628h3.422v-14.1h-3.422Z"/><path class="b" d="M467.612,1311.24a1.791,1.791,0,0,1-.388-3.009c0-1.111-.632-1.907-2.641-1.907h-2.907v6.935h3.315c1.9,0,2.621-.888,2.621-2.019m-4.263-3.488h1.336c.642,0,.948.224.948.693,0,.541-.224.755-.948.755h-1.336Zm0,4.069v-1.346H464.8c.663,0,1.01.163,1.01.673q0,.672-1.01.673Z"/><path class="b" d="M481.283,1309.016l3.508,4.242h1.683v-6.934h-1.683v4.232l-3.508-4.232H479.6v6.934h1.683Z"/><path class="b" d="M495.341,1311.962l-1.425-.979a1.864,1.864,0,1,1,0-2.375l1.425-.981a3.589,3.589,0,1,0,0,4.335"/><path class="b" d="M500.93,1313.379a3.588,3.588,0,1,0-3.588-3.588,3.587,3.587,0,0,0,3.588,3.588m0-5.452a1.864,1.864,0,1,1-1.864,1.864,1.864,1.864,0,0,1,1.864-1.864"/><path class="b" d="M471.827,1311.967a8.081,8.081,0,0,0,3,.032l.161-.033.541,1.293h1.785l-2.978-6.935h-1.866l-3,6.935h1.809Zm1.593-3.746.964,2.3a6.744,6.744,0,0,1-.975.073,6.637,6.637,0,0,1-.968-.072Z"/><path class="b" d="M478.65,1316.092l-6,14.031h3.59l1.112-2.614a16.3,16.3,0,0,0,6.07.064c.109-.019.218-.044.326-.066l1.1,2.616h3.61l-6.024-14.031Zm1.9,8.7a13.621,13.621,0,0,1-1.984-.148l2.005-4.717,1.975,4.714a13.585,13.585,0,0,1-2,.151"/><path class="b" d="M442.841,1304.521a10.122,10.122,0,0,0-10.111,10.11v15.492H438.7v-6.256l.469.184a10.111,10.111,0,1,0,3.677-19.53m0,14.256a4.146,4.146,0,1,1,4.146-4.146,4.15,4.15,0,0,1-4.146,4.146"/><rect class="c" width="5.964" height="5.964" transform="translate(432.73 1296.353)"/></g></svg>